<svg width="41" height="38" viewBox="0 0 41 38" fill="none" xmlns="http://www.w3.org/2000/svg">
<path d="M20.6441 16.7549C22.5822 11.5702 18.5687 8.73211 15.9082 6.86682C15.3995 6.48574 14.8909 6.12973 14.4788 5.80381C13.7424 5.19132 13.1999 4.38326 12.9159 3.47571C12.6318 2.56816 12.6181 1.59929 12.8764 0.684293C12.903 0.58856 12.9023 0.487476 12.8745 0.392087C12.8468 0.296697 12.7929 0.210668 12.7189 0.143396C12.6449 0.0761238 12.5535 0.0301974 12.4548 0.0106302C12.3561 -0.008937 12.2538 -0.00139141 12.1592 0.0324434C11.2633 0.381861 10.4302 0.871156 9.69205 1.48155C8.98281 2.02055 8.40822 2.71247 8.01231 3.50428C7.6164 4.29609 7.40969 5.16675 7.40804 6.04951C6.9064 6.43932 6.46289 6.89675 6.09054 7.40836C5.40649 8.32879 5.06353 9.45271 5.11894 10.5924C4.30413 11.3301 3.69727 12.2634 3.35759 13.3013C3.01791 14.3392 2.95701 15.4462 3.18084 16.5142C2.85668 16.7072 2.60577 16.9998 2.46664 17.3471C2.32751 17.6943 2.30784 18.0769 2.41066 18.4362C2.51349 18.7955 2.73312 19.1116 3.03583 19.336C3.33853 19.5603 3.70758 19.6805 4.0863 19.6782H4.12191V22.6265C4.12191 22.9257 4.24249 23.2127 4.45714 23.4243C4.67178 23.6358 4.96291 23.7547 5.26646 23.7547H6.15667L7.60644 36.1398C7.63658 36.4155 7.76912 36.6705 7.97855 36.8557C8.18798 37.0408 8.45948 37.143 8.7408 37.1427H14.7739C15.0554 37.1421 15.327 37.0396 15.537 36.8548C15.747 36.6699 15.8809 36.4155 15.9133 36.1398L17.3631 23.7547H18.2533C18.5568 23.7547 18.848 23.6358 19.0626 23.4243C19.2772 23.2127 19.3978 22.9257 19.3978 22.6265V19.6782H19.4335C19.8935 19.6782 20.3347 19.498 20.66 19.1773C20.9853 18.8567 21.1681 18.4218 21.1681 17.9683C21.1704 17.742 21.1266 17.5175 21.0392 17.3082C20.9518 17.0989 20.8226 16.909 20.6594 16.7498L20.6441 16.7549ZM7.58608 7.34819C8.3186 10.0609 11.1469 11.1289 13.726 12.0816C13.7953 12.1237 13.8732 12.1502 13.9541 12.1592C14.035 12.1683 14.1169 12.1597 14.194 12.134C14.2712 12.1083 14.3416 12.0662 14.4004 12.0106C14.4592 11.9551 14.5048 11.8874 14.534 11.8125C14.5633 11.7376 14.5755 11.6573 14.5697 11.5773C14.5639 11.4972 14.5402 11.4194 14.5005 11.3493C14.4608 11.2793 14.4058 11.2187 14.3397 11.172C14.2735 11.1252 14.1977 11.0934 14.1176 11.0788C11.3402 10.0408 8.72046 9.07308 8.52207 6.30022C8.47558 5.53799 8.62073 4.77625 8.94463 4.0826C9.26853 3.38895 9.76115 2.78485 10.3788 2.32394C10.7657 2.00659 11.1812 1.72463 11.62 1.48155C11.5917 1.82865 11.5917 2.17742 11.62 2.52451C11.6789 3.31909 11.8992 4.09389 12.268 4.80283C12.6368 5.51176 13.1464 6.14035 13.7667 6.65121C14.1889 7.00722 14.7128 7.37326 15.2927 7.76437C16.6306 8.71205 18.1515 9.77006 19.1181 11.2041C19.6337 11.9396 19.9546 12.7905 20.0514 13.6794C20.1483 14.5683 20.018 15.4669 19.6725 16.2936H19.4589H17.4241C12.79 16.2936 7.464 15.03 6.41101 11.4899C6.20213 10.7616 6.20383 9.9903 6.41595 9.26292C6.62807 8.53553 7.04216 7.88104 7.61151 7.37326L7.58608 7.34819ZM11.7573 24.4417L13.4564 26.1164L11.7573 27.7912L10.0583 26.1064L11.7573 24.4417ZM15.6539 28.8391L14.2499 30.2231L12.5509 28.5483L14.2499 26.8786L15.7251 28.3277L15.6539 28.8391ZM11.7573 32.68L10.0583 31.0053L11.7573 29.3305L13.4564 31.0053L11.7573 32.68ZM10.979 28.5583L9.28001 30.2331L7.86586 28.8391L7.80482 28.3377L9.28001 26.8886L10.979 28.5583ZM8.49664 31.0053L8.15581 31.3412L8.06933 30.5791L8.49664 31.0053ZM8.3186 32.7201L9.28001 31.7724L11.1469 33.6277C11.1565 33.6652 11.1684 33.702 11.1825 33.738H8.43559L8.3186 32.7201ZM14.2397 31.7724L15.2012 32.7201L15.0842 33.723H12.2609L14.2397 31.7724ZM15.3588 31.3412L15.018 31.0053L15.4504 30.5791L15.3588 31.3412ZM15.8675 26.9588L15.018 26.1064L16.0964 25.0434L15.8675 26.9588ZM14.2347 25.3442L12.6221 23.7597H15.8472L14.2347 25.3442ZM9.27494 25.3442L7.66238 23.7597H10.8875L9.27494 25.3442ZM14.7688 36.0546H8.7408C8.73173 36.0535 8.72329 36.0495 8.71683 36.0431C8.71037 36.0368 8.70627 36.0284 8.70519 36.0195L8.56276 34.8161H14.9519L14.8145 36.0195C14.8133 36.0292 14.8085 36.0382 14.801 36.0447C14.7935 36.0511 14.7838 36.0547 14.7739 36.0546H14.7688ZM19.4335 18.5851H17.6632C17.5863 18.5778 17.5086 18.5864 17.4353 18.6104C17.362 18.6345 17.2945 18.6733 17.2373 18.7246C17.1801 18.7758 17.1344 18.8382 17.1031 18.9079C17.0718 18.9776 17.0557 19.0529 17.0557 19.1291C17.0557 19.2053 17.0718 19.2806 17.1031 19.3503C17.1344 19.4199 17.1801 19.4824 17.2373 19.5336C17.2945 19.5849 17.362 19.6237 17.4353 19.6478C17.5086 19.6718 17.5863 19.6804 17.6632 19.6731H18.294V22.6215C18.2927 22.6312 18.2879 22.6402 18.2804 22.6467C18.2729 22.6531 18.2633 22.6567 18.2533 22.6566H5.24611C5.23615 22.6567 5.22649 22.6531 5.21899 22.6467C5.21149 22.6402 5.20667 22.6312 5.20542 22.6215V19.6731H15.2825C15.4198 19.6601 15.5472 19.5972 15.6399 19.4966C15.7326 19.396 15.784 19.265 15.784 19.1291C15.784 18.9932 15.7326 18.8622 15.6399 18.7616C15.5472 18.661 15.4198 18.5981 15.2825 18.5851H4.09139C4.00414 18.5928 3.91621 18.5825 3.8332 18.5549C3.75019 18.5273 3.67392 18.483 3.60925 18.4247C3.54459 18.3665 3.49295 18.2956 3.45761 18.2166C3.42228 18.1376 3.40403 18.0521 3.40403 17.9658C3.40403 17.8794 3.42228 17.794 3.45761 17.715C3.49295 17.636 3.54459 17.5651 3.60925 17.5068C3.67392 17.4486 3.75019 17.4042 3.8332 17.3766C3.91621 17.349 4.00414 17.3388 4.09139 17.3465H5.24611C5.38335 17.3335 5.51075 17.2706 5.60346 17.17C5.69617 17.0694 5.74754 16.9384 5.74754 16.8025C5.74754 16.6666 5.69617 16.5356 5.60346 16.435C5.51075 16.3344 5.38335 16.2715 5.24611 16.2585H4.22874C4.08302 15.4955 4.10669 14.7105 4.29813 13.9575C4.48956 13.2044 4.8442 12.5011 5.33767 11.8961C5.69376 12.9892 6.6094 14.4834 8.89849 15.6718C11.0502 16.7799 13.8989 17.3465 17.3631 17.3465H19.3978C19.4851 17.3388 19.573 17.349 19.656 17.3766C19.739 17.4042 19.8153 17.4486 19.88 17.5068C19.9446 17.5651 19.9963 17.636 20.0316 17.715C20.067 17.794 20.0852 17.8794 20.0852 17.9658C20.0852 18.0521 20.067 18.1376 20.0316 18.2166C19.9963 18.2956 19.9446 18.3665 19.88 18.4247C19.8153 18.483 19.739 18.5273 19.656 18.5549C19.573 18.5825 19.4851 18.5928 19.3978 18.5851H19.4335Z" fill="#F8D24E"/>
<path d="M23.5825 33.7149L23.1764 34.338L23.1846 34.3432L23.5825 33.7149ZM27.9545 33.9255L28.698 33.909L28.6789 33.0483L27.8301 33.1923L27.9545 33.9255ZM28.0054 36.2132L28.1946 36.9324L28.7619 36.7831L28.7488 36.1967L28.0054 36.2132ZM22.268 36.3221L22.4349 35.5974L22.4303 35.5964L22.268 36.3221ZM19.4356 35.0585L19.9168 34.4914L19.9157 34.4905L19.4356 35.0585ZM18.4116 32.7345L19.1553 32.7382V32.7345H18.4116ZM18.7675 31.1077L18.1002 30.7795L18.0997 30.7805L18.7675 31.1077ZM21.0479 29.1613L21.3117 29.8567L21.3145 29.8556L21.0479 29.1613ZM28.354 28.9725L29.0954 29.0303L29.1443 28.4023L28.5329 28.2507L28.354 28.9725ZM28.1724 31.3038L28.0339 32.0344L28.8494 32.189L28.9138 31.3615L28.1724 31.3038ZM26.1897 30.3495C25.0737 30.3495 24.1355 30.4687 23.4502 30.7701C23.099 30.9245 22.7795 31.1418 22.5469 31.4487C22.3069 31.7652 22.1925 32.134 22.1925 32.5239H23.6798C23.6798 32.4368 23.7009 32.3884 23.7321 32.3472C23.7706 32.2964 23.8578 32.2156 24.0489 32.1316C24.4481 31.9561 25.1368 31.8368 26.1897 31.8368V30.3495ZM22.1925 32.5239C22.1925 33.2892 22.5355 33.9203 23.1765 34.338L23.9885 33.0919C23.7677 32.9479 23.6798 32.785 23.6798 32.5239H22.1925ZM23.1846 34.3432C23.7923 34.728 24.5935 34.8726 25.4925 34.8726V33.3852C24.7164 33.3852 24.2443 33.2537 23.9804 33.0866L23.1846 34.3432ZM25.4925 34.8726C26.375 34.8726 27.2374 34.8015 28.0789 34.6587L27.8301 33.1923C27.0739 33.3207 26.2949 33.3852 25.4925 33.3852V34.8726ZM27.211 33.942L27.2619 36.2297L28.7488 36.1967L28.698 33.909L27.211 33.942ZM27.8161 35.494C26.9659 35.7178 26.0281 35.8327 24.9987 35.8327V37.32C26.1383 37.32 27.205 37.1928 28.1946 36.9324L27.8161 35.494ZM24.9987 35.8327C23.9482 35.8327 23.0981 35.7501 22.4349 35.5974L22.1011 37.0469C22.9098 37.2331 23.8801 37.32 24.9987 37.32V35.8327ZM22.4303 35.5964C21.7205 35.4376 21.2078 35.269 20.8659 35.102L20.2132 36.4384C20.704 36.6781 21.3436 36.8774 22.1057 37.0479L22.4303 35.5964ZM20.8659 35.102C20.4993 34.9229 20.1845 34.7185 19.9168 34.4914L18.9545 35.6255C19.3259 35.9407 19.747 36.2108 20.2132 36.4384L20.8659 35.102ZM19.9157 34.4905C19.4103 34.0634 19.1515 33.5053 19.1553 32.7382L17.668 32.7308C17.6621 33.9003 18.0859 34.8915 18.9556 35.6265L19.9157 34.4905ZM19.1553 32.7345C19.1553 32.2345 19.2534 31.8061 19.4353 31.4349L18.0997 30.7805C17.8071 31.3776 17.668 32.0337 17.668 32.7345H19.1553ZM19.4348 31.4359C19.7731 30.748 20.3705 30.2138 21.3117 29.8566L20.7841 28.466C19.5562 28.932 18.6333 29.6953 18.1002 30.7795L19.4348 31.4359ZM21.3145 29.8556C22.3039 29.4757 23.4081 29.2805 24.6356 29.2805V27.7931C23.2485 27.7931 21.9609 28.0142 20.7814 28.4671L21.3145 29.8556ZM24.6356 29.2805C25.8874 29.2805 27.0665 29.4195 28.175 29.6943L28.5329 28.2507C27.2981 27.9445 25.9982 27.7931 24.6356 27.7931V29.2805ZM27.6125 28.9148L27.431 31.246L28.9138 31.3615L29.0954 29.0303L27.6125 28.9148ZM28.3109 30.5731C27.5371 30.4264 26.8285 30.3495 26.1897 30.3495V31.8368C26.7129 31.8368 27.3261 31.9003 28.0339 32.0344L28.3109 30.5731ZM35.567 31.7613L35.5629 32.505L36.3187 32.5092L36.3107 31.7534L35.567 31.7613ZM35.2475 30.7954L34.7414 31.3404L34.7479 31.3463L35.2475 30.7954ZM33.3956 30.868L33.9106 31.4045L33.9161 31.3992L33.3956 30.868ZM32.9453 31.7468L32.2115 31.6262L32.0702 32.4856L32.9412 32.4905L32.9453 31.7468ZM38.4139 35.7121L38.8632 36.3047L39.1305 36.1021L39.1555 35.7676L38.4139 35.7121ZM36.8089 36.3076L36.649 35.5813L36.6447 35.5823L36.8089 36.3076ZM31.2313 36.1043L30.9777 36.8034L30.9838 36.8055L31.2313 36.1043ZM29.9604 35.4289L29.4988 36.012L29.5078 36.0189L29.9604 35.4289ZM29.1107 34.3613L28.4441 34.6909L28.4455 34.6939L29.1107 34.3613ZM29.9822 29.8513L30.4767 30.4067L30.4771 30.4064L29.9822 29.8513ZM36.7799 29.0451L37.0773 28.3635L37.0703 28.3605L36.7799 29.0451ZM38.4865 30.6138L37.8177 30.939L37.8197 30.9431L38.4865 30.6138ZM38.777 31.9138L39.5188 31.9678L39.5207 31.9408V31.9138H38.777ZM38.6899 33.1121L38.6862 33.8558L39.3812 33.8592L39.4316 33.1661L38.6899 33.1121ZM32.8 33.0831L32.8037 32.3394L31.8335 32.3346L32.0809 33.2727L32.8 33.0831ZM33.6425 34.1216L33.2765 34.769L33.2795 34.7707L33.6425 34.1216ZM38.1597 33.8674V33.1238H38.0111L37.8739 33.1809L38.1597 33.8674ZM38.5519 33.8674L39.2935 33.9229L39.3533 33.1238H38.5519V33.8674ZM36.3107 31.7534C36.3049 31.2155 36.1813 30.6383 35.7471 30.2445L34.7479 31.3463C34.7391 31.3383 34.7562 31.3478 34.7775 31.4121C34.8 31.4802 34.8215 31.5939 34.8234 31.7692L36.3107 31.7534ZM35.7535 30.2504C35.3632 29.888 34.8512 29.7685 34.3469 29.7685V31.2558C34.6367 31.2558 34.725 31.3251 34.7415 31.3404L35.7535 30.2504ZM34.3469 29.7685C33.7931 29.7685 33.278 29.942 32.875 30.3369L33.9161 31.3992C33.9973 31.3196 34.1164 31.2558 34.3469 31.2558V29.7685ZM32.8805 30.3315C32.5144 30.683 32.2938 31.1255 32.2115 31.6262L33.6791 31.8674C33.713 31.6612 33.7925 31.5179 33.9106 31.4045L32.8805 30.3315ZM32.9412 32.4905L35.5629 32.505L35.5712 31.0176L32.9494 31.0031L32.9412 32.4905ZM37.9647 35.1195C37.8016 35.243 37.404 35.4151 36.649 35.5813L36.9688 37.0339C37.7535 36.8612 38.4258 36.6363 38.8632 36.3047L37.9647 35.1195ZM36.6447 35.5823C35.9241 35.7454 35.2313 35.8254 34.5648 35.8254V37.3127C35.3509 37.3127 36.1541 37.2184 36.9731 37.0329L36.6447 35.5823ZM34.5648 35.8254C33.864 35.8254 33.2868 35.7923 32.8266 35.7304L32.6282 37.2044C33.1751 37.278 33.8228 37.3127 34.5648 37.3127V35.8254ZM32.8266 35.7304C32.3752 35.6696 31.9261 35.5608 31.4789 35.403L30.9838 36.8055C31.5243 36.9963 32.0726 37.1296 32.6282 37.2044L32.8266 35.7304ZM31.4849 35.4052C31.0502 35.2474 30.6964 35.0562 30.4131 34.8388L29.5078 36.0189C29.9313 36.3438 30.4248 36.6028 30.9777 36.8034L31.4849 35.4052ZM30.422 34.8458C30.1667 34.6437 29.9498 34.3765 29.7759 34.0287L28.4455 34.6939C28.7074 35.2176 29.0569 35.6621 29.4988 36.0119L30.422 34.8458ZM29.7773 34.0316C29.6209 33.7153 29.5276 33.308 29.5276 32.7853H28.0402C28.0402 33.4827 28.1648 34.1261 28.4441 34.6909L29.7773 34.0316ZM29.5276 32.7853C29.5276 32.2621 29.6219 31.8001 29.8002 31.3892L28.4358 30.7971C28.1686 31.4126 28.0402 32.0787 28.0402 32.7853H29.5276ZM29.8002 31.3892C29.9876 30.9572 30.2173 30.6377 30.4767 30.4067L29.4877 29.2959C29.0402 29.6943 28.6937 30.2027 28.4358 30.7971L29.8002 31.3892ZM30.4771 30.4064C31.2764 29.6937 32.4956 29.2805 34.2525 29.2805V27.7931C32.2814 27.7931 30.6537 28.2562 29.4873 29.2962L30.4771 30.4064ZM34.2525 29.2805C35.0409 29.2805 35.7844 29.4307 36.4894 29.7298L37.0703 28.3605C36.1776 27.9818 35.2362 27.7931 34.2525 27.7931V29.2805ZM36.4824 29.7268C37.1405 30.0139 37.5659 30.421 37.8177 30.939L39.1554 30.2887C38.7294 29.4123 38.0169 28.7736 37.0773 28.3635L36.4824 29.7268ZM37.8197 30.9431C37.9586 31.2244 38.0334 31.5437 38.0334 31.9138H39.5207C39.5207 31.335 39.4018 30.7876 39.1534 30.2846L37.8197 30.9431ZM38.0353 31.8599L37.9482 33.0582L39.4316 33.1661L39.5188 31.9678L38.0353 31.8599ZM38.6936 32.3685L32.8037 32.3394L32.7964 33.8267L38.6862 33.8558L38.6936 32.3685ZM32.0809 33.2727C32.2548 33.932 32.68 34.4319 33.2766 34.769L34.0084 33.4742C33.7141 33.3078 33.5777 33.1154 33.5191 32.8934L32.0809 33.2727ZM33.2795 34.7707C33.8827 35.108 34.637 35.2429 35.4799 35.2429V33.7556C34.7735 33.7556 34.3028 33.6388 34.0054 33.4725L33.2795 34.7707ZM35.4799 35.2429C36.3844 35.2429 37.3778 34.9984 38.4455 34.554L37.8739 33.1809C36.9178 33.5789 36.1247 33.7556 35.4799 33.7556V35.2429ZM38.1597 34.6111H38.5519V33.1238H38.1597V34.6111ZM37.8103 33.812L37.6723 35.6566L39.1555 35.7676L39.2935 33.9229L37.8103 33.812Z" fill="#F8D24E"/>
</svg>
