<svg width="61" height="56" viewBox="0 0 61 56" fill="none" xmlns="http://www.w3.org/2000/svg">
<path d="M30.9315 25.6984C33.8049 18.0114 27.8543 13.8036 23.9099 11.0381C23.1557 10.4731 22.4015 9.94528 21.7906 9.46205C20.6988 8.55396 19.8945 7.35591 19.4734 6.01035C19.0522 4.66479 19.0319 3.22833 19.4149 1.87173C19.4543 1.72979 19.4533 1.57992 19.4121 1.4385C19.3709 1.29707 19.2911 1.16952 19.1813 1.06978C19.0716 0.970041 18.9361 0.901949 18.7898 0.872938C18.6434 0.843928 18.4918 0.855115 18.3515 0.905279C17.0231 1.42333 15.7881 2.14878 14.6936 3.05377C13.6421 3.85289 12.7902 4.87876 12.2032 6.05272C11.6162 7.22667 11.3098 8.51753 11.3073 9.82633C10.5636 10.4043 9.90601 11.0825 9.35395 11.841C8.33976 13.2057 7.83127 14.872 7.91343 16.5617C6.70537 17.6555 5.80563 19.0393 5.30201 20.5781C4.79839 22.1169 4.70809 23.7581 5.03995 25.3415C4.55935 25.6278 4.18735 26.0616 3.98107 26.5764C3.77478 27.0912 3.74562 27.6585 3.89807 28.1912C4.05052 28.7239 4.37616 29.1925 4.82495 29.5252C5.27375 29.8578 5.82091 30.036 6.38242 30.0325H6.43521V34.4038C6.43521 34.8474 6.61399 35.2729 6.93223 35.5866C7.25046 35.9003 7.6821 36.0765 8.13215 36.0765H9.45199L11.6015 54.439C11.6461 54.8478 11.8426 55.2258 12.1532 55.5003C12.4637 55.7748 12.8662 55.9264 13.2833 55.9258H22.2281C22.6455 55.9249 23.0481 55.7731 23.3595 55.499C23.6709 55.2249 23.8694 54.8478 23.9174 54.439L26.0669 36.0765H27.3867C27.8368 36.0765 28.2684 35.9003 28.5867 35.5866C28.9049 35.2729 29.0837 34.8474 29.0837 34.4038V30.0325H29.1365C29.8186 30.0325 30.4727 29.7654 30.955 29.29C31.4373 28.8146 31.7083 28.1698 31.7083 27.4974C31.7117 27.1619 31.6467 26.8291 31.5172 26.5187C31.3876 26.2084 31.1961 25.9269 30.9541 25.6909L30.9315 25.6984ZM11.5713 11.7518C12.6573 15.7737 16.8507 17.3572 20.6744 18.7697C20.7772 18.8321 20.8927 18.8713 21.0126 18.8848C21.1326 18.8982 21.254 18.8854 21.3684 18.8473C21.4828 18.8092 21.5872 18.7468 21.6744 18.6644C21.7615 18.5821 21.8291 18.4818 21.8725 18.3707C21.9159 18.2597 21.9339 18.1406 21.9253 18.0219C21.9167 17.9032 21.8817 17.7879 21.8228 17.684C21.7638 17.5802 21.6824 17.4904 21.5843 17.421C21.4862 17.3517 21.3738 17.3045 21.2551 17.2828C17.1372 15.744 13.2531 14.3092 12.959 10.198C12.8901 9.06795 13.1053 7.93856 13.5855 6.91014C14.0657 5.88172 14.7961 4.98607 15.7118 4.30271C16.2855 3.8322 16.9014 3.41416 17.552 3.05377C17.5101 3.56838 17.5101 4.08547 17.552 4.60008C17.6393 5.77815 17.9661 6.92689 18.5128 7.97797C19.0596 9.02905 19.8152 9.96101 20.7347 10.7184C21.3607 11.2463 22.1375 11.789 22.9973 12.3688C24.9809 13.7739 27.2359 15.3425 28.6689 17.4687C29.4334 18.5591 29.9091 19.8207 30.0527 21.1386C30.1963 22.4565 30.0032 23.7889 29.4909 25.0144H29.1742H26.1574C19.2867 25.0144 11.3903 23.141 9.82909 17.8924C9.51939 16.8127 9.52192 15.6691 9.83641 14.5906C10.1509 13.5122 10.7648 12.5418 11.609 11.789L11.5713 11.7518ZM17.7557 37.095L20.2747 39.578L17.7557 42.0611L15.2367 39.5632L17.7557 37.095ZM23.5328 43.6148L21.4512 45.6667L18.9322 43.1836L21.4512 40.708L23.6384 42.8565L23.5328 43.6148ZM17.7557 49.3094L15.2367 46.8264L17.7557 44.3433L20.2747 46.8264L17.7557 49.3094ZM16.6017 43.1985L14.0827 45.6815L11.9861 43.6148L11.8956 42.8714L14.0827 40.7229L16.6017 43.1985ZM12.9213 46.8264L12.416 47.3245L12.2878 46.1945L12.9213 46.8264ZM12.6573 49.3689L14.0827 47.9638L16.8506 50.7145C16.8648 50.77 16.8824 50.8246 16.9034 50.878H12.8308L12.6573 49.3689ZM21.4361 47.9638L22.8616 49.3689L22.6881 50.8557H18.5023L21.4361 47.9638ZM23.0954 47.3245L22.5901 46.8264L23.2311 46.1945L23.0954 47.3245ZM23.8496 40.827L22.5901 39.5632L24.1889 37.9871L23.8496 40.827ZM21.4286 38.4332L19.0378 36.084H23.8194L21.4286 38.4332ZM14.0752 38.4332L11.6844 36.084H16.466L14.0752 38.4332ZM22.2205 54.3126H13.2833C13.2698 54.3111 13.2573 54.3051 13.2478 54.2956C13.2382 54.2862 13.2321 54.2738 13.2305 54.2606L13.0193 52.4764H22.492L22.2884 54.2606C22.2865 54.275 22.2794 54.2883 22.2682 54.2979C22.2571 54.3075 22.2428 54.3127 22.2281 54.3126H22.2205ZM29.1365 28.4118H26.5119C26.3978 28.401 26.2827 28.4139 26.174 28.4495C26.0652 28.4851 25.9652 28.5427 25.8804 28.6187C25.7956 28.6946 25.7279 28.7872 25.6815 28.8905C25.6351 28.9938 25.6112 29.1055 25.6112 29.2185C25.6112 29.3314 25.6351 29.4431 25.6815 29.5464C25.7279 29.6497 25.7956 29.7423 25.8804 29.8182C25.9652 29.8942 26.0652 29.9518 26.174 29.9874C26.2827 30.0231 26.3978 30.0359 26.5119 30.0251H27.4471V34.3964C27.4452 34.4108 27.4381 34.4241 27.427 34.4337C27.4158 34.4433 27.4015 34.4485 27.3867 34.4484H8.10198C8.0872 34.4485 8.07289 34.4433 8.06177 34.4337C8.05065 34.4241 8.0435 34.4108 8.04165 34.3964V30.0251H22.9823C23.1857 30.0058 23.3746 29.9125 23.5121 29.7633C23.6495 29.6142 23.7257 29.42 23.7257 29.2185C23.7257 29.017 23.6495 28.8227 23.5121 28.6736C23.3746 28.5244 23.1857 28.4311 22.9823 28.4118H6.38996C6.2606 28.4233 6.13023 28.4081 6.00716 28.3672C5.88409 28.3263 5.771 28.2605 5.67513 28.1742C5.57925 28.0878 5.50269 27.9827 5.4503 27.8655C5.39792 27.7484 5.37085 27.6218 5.37085 27.4937C5.37085 27.3657 5.39792 27.2391 5.4503 27.1219C5.50269 27.0048 5.57925 26.8996 5.67513 26.8133C5.771 26.7269 5.88409 26.6612 6.00716 26.6202C6.13023 26.5793 6.2606 26.5641 6.38996 26.5756H8.10198C8.30545 26.5563 8.49434 26.463 8.63179 26.3139C8.76924 26.1647 8.8454 25.9705 8.8454 25.769C8.8454 25.5675 8.76924 25.3732 8.63179 25.2241C8.49434 25.075 8.30545 24.9817 8.10198 24.9624H6.59359C6.37755 23.8312 6.41265 22.6674 6.69647 21.5509C6.98029 20.4344 7.5061 19.3917 8.23773 18.4946C8.76566 20.1153 10.1232 22.3307 13.5171 24.0926C16.7073 25.7355 20.9308 26.5756 26.0669 26.5756H29.0837C29.2131 26.5641 29.3434 26.5793 29.4665 26.6202C29.5896 26.6612 29.7026 26.7269 29.7985 26.8133C29.8944 26.8996 29.971 27.0048 30.0233 27.1219C30.0757 27.2391 30.1028 27.3657 30.1028 27.4937C30.1028 27.6218 30.0757 27.7484 30.0233 27.8655C29.971 27.9827 29.8944 28.0878 29.7985 28.1742C29.7026 28.2605 29.5896 28.3263 29.4665 28.3672C29.3434 28.4081 29.2131 28.4233 29.0837 28.4118H29.1365Z" fill="#F8D24E"/>
<path d="M34.4614 50.2145L33.8673 51.1261L33.8793 51.1337L34.4614 50.2145ZM40.8575 50.5226L41.9452 50.4985L41.9173 49.2393L40.6755 49.45L40.8575 50.5226ZM40.9319 53.8694L41.2088 54.9216L42.0387 54.7032L42.0196 53.8453L40.9319 53.8694ZM32.5383 54.0288L32.7824 52.9686L32.7758 52.9671L32.5383 54.0288ZM28.3946 52.1801L29.0985 51.3505L29.0969 51.3491L28.3946 52.1801ZM26.8965 48.7802L27.9845 48.7856V48.7802H26.8965ZM27.4171 46.4002L26.4408 45.92L26.4401 45.9215L27.4171 46.4002ZM30.7533 43.5527L31.1393 44.57L31.1433 44.5684L30.7533 43.5527ZM41.4419 43.2765L42.5266 43.361L42.5981 42.4423L41.7037 42.2205L41.4419 43.2765ZM41.1763 46.6871L40.9737 47.756L42.1667 47.9821L42.261 46.7715L41.1763 46.6871ZM38.2757 45.291C36.6429 45.291 35.2704 45.4654 34.2678 45.9063C33.7541 46.1322 33.2866 46.4501 32.9462 46.8991C32.5953 47.3621 32.4278 47.9017 32.4278 48.472H34.6038C34.6038 48.3447 34.6346 48.2738 34.6803 48.2136C34.7366 48.1393 34.8641 48.0211 35.1437 47.8982C35.7277 47.6414 36.7352 47.4669 38.2757 47.4669V45.291ZM32.4278 48.472C32.4278 49.5916 32.9296 50.5149 33.8674 51.126L35.0554 49.303C34.7323 49.0925 34.6038 48.8541 34.6038 48.472H32.4278ZM33.8793 51.1337C34.7682 51.6967 35.9405 51.9081 37.2557 51.9081V49.7321C36.1202 49.7321 35.4295 49.5398 35.0435 49.2954L33.8793 51.1337ZM37.2557 51.9081C38.5468 51.9081 39.8084 51.8042 41.0396 51.5953L40.6755 49.45C39.5692 49.6377 38.4296 49.7321 37.2557 49.7321V51.9081ZM39.7698 50.5468L39.8442 53.8936L42.0196 53.8453L41.9452 50.4985L39.7698 50.5468ZM40.655 52.8173C39.4112 53.1446 38.0392 53.3127 36.5332 53.3127V55.4887C38.2005 55.4887 39.761 55.3026 41.2088 54.9216L40.655 52.8173ZM36.5332 53.3127C34.9964 53.3127 33.7527 53.192 32.7824 52.9686L32.2942 55.0891C33.4772 55.3615 34.8968 55.4887 36.5332 55.4887V53.3127ZM32.7758 52.9671C31.7373 52.7348 30.9873 52.488 30.487 52.2437L29.5321 54.199C30.2502 54.5496 31.186 54.8412 32.3008 55.0906L32.7758 52.9671ZM30.487 52.2437C29.9508 51.9818 29.4901 51.6828 29.0985 51.3505L27.6907 53.0097C28.2341 53.4707 28.8501 53.8659 29.5321 54.199L30.487 52.2437ZM29.0969 51.3491C28.3576 50.7244 27.9789 49.9079 27.9845 48.7856L25.8085 48.7747C25.8 50.4857 26.42 51.9359 27.6924 53.0111L29.0969 51.3491ZM27.9845 48.7802C27.9845 48.0488 28.128 47.422 28.3941 46.8789L26.4401 45.9215C26.0121 46.795 25.8085 47.7549 25.8085 48.7802H27.9845ZM28.3934 46.8803C28.8884 45.874 29.7623 45.0925 31.1393 44.57L30.3673 42.5355C28.571 43.2172 27.2209 44.334 26.4408 45.92L28.3934 46.8803ZM31.1433 44.5684C32.5909 44.0127 34.2062 43.727 36.002 43.727V41.551C33.9728 41.551 32.0891 41.8745 30.3634 42.537L31.1433 44.5684ZM36.002 43.727C37.8335 43.727 39.5583 43.9304 41.1801 44.3325L41.7037 42.2205C39.8972 41.7726 37.9955 41.551 36.002 41.551V43.727ZM40.3572 43.192L40.0916 46.6026L42.261 46.7715L42.5266 43.361L40.3572 43.192ZM41.3789 45.6181C40.2469 45.4036 39.2103 45.291 38.2757 45.291V47.4669C39.0411 47.4669 39.9382 47.5597 40.9737 47.756L41.3789 45.6181ZM51.9945 47.3564L51.9884 48.4444L53.0941 48.4505L53.0824 47.3449L51.9945 47.3564ZM51.527 45.9433L50.7866 46.7407L50.7961 46.7492L51.527 45.9433ZM48.8176 46.0496L49.5711 46.8345L49.5792 46.8266L48.8176 46.0496ZM48.1589 47.3352L47.0853 47.1587L46.8786 48.4161L48.1529 48.4231L48.1589 47.3352ZM56.1594 53.1363L56.8167 54.0034L57.2077 53.7069L57.2443 53.2175L56.1594 53.1363ZM53.8113 54.0076L53.5774 52.945L53.5711 52.9464L53.8113 54.0076ZM45.6514 53.7101L45.2804 54.7329L45.2893 54.736L45.6514 53.7101ZM43.7921 52.722L43.1168 53.575L43.1233 53.5801L43.1299 53.5852L43.7921 52.722ZM42.549 51.1601L41.5737 51.6424L41.5759 51.6467L42.549 51.1601ZM43.824 44.5621L44.5475 45.3747L44.548 45.3742L43.824 44.5621ZM53.7688 43.3827L54.204 42.3855L54.1937 42.3812L53.7688 43.3827ZM56.2656 45.6777L55.2871 46.1534L55.2901 46.1594L56.2656 45.6777ZM56.6906 47.5796L57.7758 47.6585L57.7786 47.6191V47.5796H56.6906ZM56.5631 49.3326L56.5578 50.4206L57.5745 50.4256L57.6483 49.4116L56.5631 49.3326ZM47.9464 49.2901L47.9518 48.2022L46.5324 48.1952L46.8944 49.5676L47.9464 49.2901ZM49.1789 50.8095L48.6435 51.7567L48.6479 51.7591L49.1789 50.8095ZM55.7875 50.4376V49.3496H55.5701L55.3694 49.4332L55.7875 50.4376ZM56.3613 50.4376L57.4462 50.5188L57.5337 49.3496H56.3613V50.4376ZM53.0824 47.3449C53.074 46.5579 52.8931 45.7136 52.2579 45.1374L50.7961 46.7492C50.7832 46.7376 50.8082 46.7515 50.8394 46.8455C50.8723 46.9451 50.9038 47.1115 50.9065 47.368L53.0824 47.3449ZM52.2673 45.1461C51.6963 44.6159 50.9472 44.441 50.2095 44.441V46.6169C50.6335 46.6169 50.7627 46.7183 50.7867 46.7406L52.2673 45.1461ZM50.2095 44.441C49.3993 44.441 48.6457 44.6948 48.0561 45.2725L49.5792 46.8266C49.6979 46.7102 49.8723 46.6169 50.2095 46.6169V44.441ZM48.0642 45.2647C47.5286 45.7789 47.2057 46.4262 47.0853 47.1587L49.2325 47.5117C49.2821 47.21 49.3984 47.0003 49.5711 46.8344L48.0642 45.2647ZM48.1529 48.4231L51.9884 48.4444L52.0005 46.2685L48.1649 46.2472L48.1529 48.4231ZM55.5021 52.2693C55.2636 52.4501 54.6819 52.7019 53.5774 52.945L54.0452 55.0701C55.1932 54.8174 56.1768 54.4884 56.8167 54.0034L55.5021 52.2693ZM53.5711 52.9464C52.5169 53.1851 51.5032 53.3021 50.5282 53.3021V55.478C51.6782 55.478 52.8533 55.34 54.0516 55.0687L53.5711 52.9464ZM50.5282 53.3021C49.503 53.3021 48.6586 53.2537 47.9853 53.1631L47.695 55.3196C48.4951 55.4273 49.4427 55.478 50.5282 55.478V53.3021ZM47.9853 53.1631C47.3248 53.0741 46.6679 52.9151 46.0135 52.6841L45.2893 54.736C46.08 55.0151 46.8822 55.2102 47.695 55.3196L47.9853 53.1631ZM46.0225 52.6873C45.3864 52.4566 44.8689 52.1767 44.4543 51.8587L43.1299 53.5852C43.7495 54.0605 44.4715 54.4394 45.2804 54.7328L46.0225 52.6873ZM44.4674 51.8689C44.0939 51.5732 43.7765 51.1824 43.5221 50.6736L41.5759 51.6467C41.959 52.4128 42.4703 53.0632 43.1168 53.575L44.4674 51.8689ZM43.5243 50.6778C43.2954 50.215 43.1589 49.6192 43.1589 48.8545H40.9829C40.9829 49.8748 41.1651 50.8161 41.5737 51.6424L43.5243 50.6778ZM43.1589 48.8545C43.1589 48.0891 43.2968 47.4132 43.5577 46.8121L41.5616 45.9458C41.1708 46.8463 40.9829 47.8208 40.9829 48.8545H43.1589ZM43.5577 46.8121C43.832 46.18 44.1679 45.7126 44.5475 45.3747L43.1005 43.7495C42.4459 44.3324 41.939 45.0762 41.5616 45.9458L43.5577 46.8121ZM44.548 45.3742C45.7173 44.3316 47.5011 43.727 50.0714 43.727V41.551C47.1876 41.551 44.8064 42.2285 43.0999 43.75L44.548 45.3742ZM50.0714 43.727C51.2247 43.727 52.3124 43.9467 53.3439 44.3843L54.1937 42.3812C52.8877 41.8271 51.5105 41.551 50.0714 41.551V43.727ZM53.3337 44.3799C54.2965 44.8001 54.9187 45.3955 55.2871 46.1534L57.2441 45.2021C56.6209 43.9199 55.5786 42.9854 54.2039 42.3856L53.3337 44.3799ZM55.2901 46.1594C55.4933 46.5709 55.6027 47.038 55.6027 47.5796H57.7786C57.7786 46.7327 57.6046 45.932 57.2412 45.196L55.2901 46.1594ZM55.6055 47.5006L55.478 49.2537L57.6483 49.4116L57.7758 47.6585L55.6055 47.5006ZM56.5685 48.2447L47.9518 48.2022L47.941 50.3781L56.5578 50.4206L56.5685 48.2447ZM46.8944 49.5676C47.1488 50.5321 47.7708 51.2634 48.6435 51.7567L49.7142 49.8623C49.2836 49.619 49.0841 49.3374 48.9984 49.0127L46.8944 49.5676ZM48.6479 51.7591C49.5304 52.2525 50.6338 52.45 51.867 52.45V50.274C50.8335 50.274 50.1449 50.1031 49.7099 49.8599L48.6479 51.7591ZM51.867 52.45C53.1902 52.45 54.6436 52.0923 56.2056 51.4421L55.3694 49.4332C53.9706 50.0155 52.8104 50.274 51.867 50.274V52.45ZM55.7875 51.5256H56.3613V49.3496H55.7875V51.5256ZM55.2763 50.3565L55.0744 53.0552L57.2443 53.2175L57.4462 50.5188L55.2763 50.3565Z" fill="#F8D24E"/>
</svg>
