<svg width="48" height="45" viewBox="0 0 48 45" fill="none" xmlns="http://www.w3.org/2000/svg">
<path d="M24.487 19.9247C26.7857 13.7591 22.0253 10.3841 18.8697 8.16595C18.2664 7.71277 17.663 7.28941 17.1743 6.90183C16.3008 6.17346 15.6574 5.21252 15.3205 4.13327C14.9836 3.05402 14.9673 1.90186 15.2737 0.813754C15.3052 0.699909 15.3044 0.579702 15.2715 0.466265C15.2385 0.352829 15.1746 0.250524 15.0868 0.170525C14.9991 0.0905255 14.8907 0.0359104 14.7736 0.0126413C14.6565 -0.0106278 14.5353 -0.00165465 14.423 0.0385814C13.3603 0.454105 12.3722 1.03597 11.4967 1.76185C10.6555 2.40281 9.97396 3.22564 9.50437 4.16725C9.03478 5.10886 8.7896 6.14424 8.78764 7.19401C8.19265 7.65757 7.6666 8.20154 7.22495 8.80994C6.4136 9.90451 6.00681 11.2411 6.07254 12.5963C5.10609 13.4736 4.3863 14.5836 3.98341 15.8178C3.58051 17.052 3.50827 18.3684 3.77376 19.6385C3.38927 19.8681 3.09167 20.216 2.92665 20.6289C2.76162 21.0418 2.73829 21.4969 2.86025 21.9241C2.98221 22.3514 3.24272 22.7273 3.60176 22.9941C3.9608 23.2609 4.39853 23.4039 4.84773 23.401H4.88997V26.9072C4.88997 27.263 5.03299 27.6043 5.28758 27.8559C5.54217 28.1075 5.88747 28.2488 6.24752 28.2488H7.30339L9.02296 42.9771C9.05871 43.305 9.21591 43.6082 9.46432 43.8283C9.71272 44.0485 10.0348 44.1701 10.3684 44.1697H17.5242C17.8582 44.1689 18.1803 44.0471 18.4294 43.8273C18.6785 43.6075 18.8373 43.3049 18.8758 42.9771L20.5953 28.2488H21.6512C22.0112 28.2488 22.3565 28.1075 22.6111 27.8559C22.8657 27.6043 23.0087 27.263 23.0087 26.9072V23.401H23.051C23.5967 23.401 24.12 23.1868 24.5058 22.8055C24.8917 22.4242 25.1084 21.907 25.1084 21.3677C25.1112 21.0986 25.0592 20.8316 24.9555 20.5827C24.8519 20.3338 24.6987 20.108 24.5051 19.9187L24.487 19.9247ZM8.99882 8.73838C9.86765 11.9643 13.2223 13.2344 16.2813 14.3673C16.3636 14.4173 16.456 14.4489 16.5519 14.4596C16.6479 14.4704 16.745 14.4601 16.8365 14.4296C16.928 14.399 17.0116 14.349 17.0813 14.2829C17.151 14.2168 17.2051 14.1364 17.2398 14.0473C17.2745 13.9583 17.2889 13.8627 17.282 13.7675C17.2752 13.6723 17.2472 13.5798 17.2 13.4965C17.1529 13.4132 17.0877 13.3412 17.0093 13.2856C16.9308 13.23 16.8409 13.1921 16.7459 13.1747C13.4516 11.9404 10.3443 10.7896 10.109 7.49215C10.0539 6.58572 10.226 5.67986 10.6102 4.85498C10.9944 4.0301 11.5787 3.31172 12.3112 2.76361C12.7702 2.38622 13.263 2.05091 13.7834 1.76185C13.7499 2.17461 13.7499 2.58936 13.7834 3.00212C13.8533 3.94703 14.1147 4.86841 14.5521 5.71147C14.9895 6.55452 15.594 7.30203 16.3296 7.90955C16.8304 8.33291 17.4518 8.7682 18.1397 9.2333C19.7265 10.3603 21.5305 11.6184 22.6769 13.3238C23.2885 14.1984 23.6691 15.2103 23.784 16.2674C23.8988 17.3244 23.7443 18.3931 23.3345 19.3761H23.0811H20.6677C15.1712 19.3761 8.85402 17.8735 7.60507 13.6637C7.35731 12.7976 7.35933 11.8804 7.61093 11.0154C7.86252 10.1504 8.35368 9.37205 9.02898 8.7682L8.99882 8.73838ZM13.9463 29.0657L15.9616 31.0573L13.9463 33.0489L11.9311 31.0454L13.9463 29.0657ZM18.568 34.2952L16.9028 35.9409L14.8876 33.9493L16.9028 31.9637L18.6525 33.687L18.568 34.2952ZM13.9463 38.8627L11.9311 36.8711L13.9463 34.8795L15.9616 36.8711L13.9463 38.8627ZM13.0232 33.9613L11.008 35.9528L9.33066 34.2952L9.25826 33.6989L11.008 31.9756L13.0232 33.9613ZM10.0788 36.8711L9.67458 37.2706L9.572 36.3643L10.0788 36.8711ZM9.86766 38.9104L11.008 37.7834L13.2223 39.9897C13.2336 40.0342 13.2478 40.0781 13.2646 40.1209H10.0064L9.86766 38.9104ZM16.8907 37.7834L18.0311 38.9104L17.8923 40.103H14.5437L16.8907 37.7834ZM18.2181 37.2706L17.8138 36.8711L18.3267 36.3643L18.2181 37.2706ZM18.8215 32.0591L17.8138 31.0454L19.093 29.7813L18.8215 32.0591ZM16.8847 30.1391L14.972 28.2548H18.7973L16.8847 30.1391ZM11.002 30.1391L9.08932 28.2548H12.9146L11.002 30.1391ZM17.5182 42.8757H10.3684C10.3577 42.8745 10.3477 42.8697 10.34 42.8621C10.3323 42.8545 10.3275 42.8446 10.3262 42.834L10.1573 41.4029H17.7354L17.5725 42.834C17.571 42.8456 17.5653 42.8562 17.5564 42.8639C17.5475 42.8716 17.5361 42.8758 17.5242 42.8757H17.5182ZM23.051 22.1011H20.9513C20.8601 22.0925 20.768 22.1028 20.681 22.1313C20.594 22.1599 20.514 22.2061 20.4461 22.267C20.3783 22.328 20.3241 22.4022 20.287 22.4851C20.2499 22.5679 20.2307 22.6575 20.2307 22.7481C20.2307 22.8387 20.2499 22.9283 20.287 23.0111C20.3241 23.094 20.3783 23.1683 20.4461 23.2292C20.514 23.2901 20.594 23.3363 20.681 23.3649C20.768 23.3935 20.8601 23.4037 20.9513 23.3951H21.6995V26.9012C21.698 26.9128 21.6923 26.9235 21.6834 26.9312C21.6745 26.9389 21.663 26.9431 21.6512 26.943H6.22338C6.21156 26.9431 6.20011 26.9389 6.19121 26.9312C6.18232 26.9235 6.1766 26.9128 6.17512 26.9012V23.3951H18.1276C18.2904 23.3796 18.4415 23.3048 18.5514 23.1852C18.6614 23.0655 18.7223 22.9097 18.7223 22.7481C18.7223 22.5865 18.6614 22.4307 18.5514 22.3111C18.4415 22.1914 18.2904 22.1166 18.1276 22.1011H4.85377C4.75028 22.1104 4.64598 22.0982 4.54752 22.0653C4.44907 22.0325 4.3586 21.9798 4.2819 21.9105C4.2052 21.8412 4.14395 21.7569 4.10204 21.663C4.06013 21.569 4.03848 21.4674 4.03848 21.3647C4.03848 21.262 4.06013 21.1605 4.10204 21.0665C4.14395 20.9725 4.2052 20.8882 4.2819 20.8189C4.3586 20.7497 4.44907 20.6969 4.54752 20.6641C4.64598 20.6313 4.75028 20.6191 4.85377 20.6283H6.22338C6.38616 20.6129 6.53727 20.538 6.64723 20.4184C6.75719 20.2988 6.81812 20.143 6.81812 19.9813C6.81812 19.8197 6.75719 19.6639 6.64723 19.5443C6.53727 19.4247 6.38616 19.3498 6.22338 19.3344H5.01667C4.84384 18.4271 4.87192 17.4936 5.09897 16.5981C5.32603 15.7025 5.74668 14.8662 6.33198 14.1467C6.75433 15.4466 7.84037 17.2235 10.5555 18.6367C13.1077 19.9545 16.4865 20.6283 20.5953 20.6283H23.0087C23.1122 20.6191 23.2165 20.6313 23.315 20.6641C23.4135 20.6969 23.5039 20.7497 23.5806 20.8189C23.6573 20.8882 23.7186 20.9725 23.7605 21.0665C23.8024 21.1605 23.824 21.262 23.824 21.3647C23.824 21.4674 23.8024 21.569 23.7605 21.663C23.7186 21.7569 23.6573 21.8412 23.5806 21.9105C23.5039 21.9798 23.4135 22.0325 23.315 22.0653C23.2165 22.0982 23.1122 22.1104 23.0087 22.1011H23.051Z" fill="#F8D24E"/>
<path d="M27.8677 39.2557L27.3848 39.9966L27.3945 40.0028L27.8677 39.2557ZM33.0669 39.5061L33.951 39.4865L33.9283 38.4629L32.9189 38.6342L33.0669 39.5061ZM33.1273 42.2266L33.3524 43.0818L34.027 42.9043L34.0115 42.2069L33.1273 42.2266ZM26.3045 42.3561L26.503 41.4943L26.4976 41.4931L26.3045 42.3561ZM22.9363 40.8534L23.5085 40.1791L23.5071 40.1779L22.9363 40.8534ZM21.7186 38.0897L22.6029 38.0942V38.0897H21.7186ZM22.1418 36.1552L21.3482 35.7649L21.3476 35.766L22.1418 36.1552ZM24.8536 33.8406L25.1674 34.6674L25.1706 34.6662L24.8536 33.8406ZM33.5419 33.6161L34.4236 33.6847L34.4817 32.9379L33.7547 32.7577L33.5419 33.6161ZM33.326 36.3884L33.1613 37.2573L34.131 37.4411L34.2077 36.457L33.326 36.3884ZM30.9682 35.2535C29.641 35.2535 28.5254 35.3953 27.7104 35.7537C27.2928 35.9373 26.9128 36.1957 26.6361 36.5607C26.3508 36.937 26.2147 37.3757 26.2147 37.8393H27.9835C27.9835 37.7357 28.0085 37.6782 28.0457 37.6292C28.0915 37.5688 28.1951 37.4727 28.4224 37.3728C28.8971 37.1641 29.716 37.0223 30.9682 37.0223V35.2535ZM26.2147 37.8393C26.2147 38.7493 26.6226 39.4998 27.3849 39.9966L28.3506 38.5147C28.088 38.3436 27.9835 38.1498 27.9835 37.8393H26.2147ZM27.3945 40.0028C28.1172 40.4604 29.07 40.6323 30.1391 40.6323V38.8636C29.2161 38.8636 28.6547 38.7072 28.3409 38.5085L27.3945 40.0028ZM30.1391 40.6323C31.1886 40.6323 32.214 40.5478 33.2148 40.378L32.9189 38.6342C32.0197 38.7868 31.0933 38.8636 30.1391 38.8636V40.6323ZM32.1827 39.5258L32.2432 42.2462L34.0115 42.2069L33.951 39.4865L32.1827 39.5258ZM32.9023 41.3713C31.8912 41.6374 30.776 41.774 29.5518 41.774V43.5428C30.9071 43.5428 32.1756 43.3915 33.3524 43.0818L32.9023 41.3713ZM29.5518 41.774C28.3026 41.774 27.2916 41.6759 26.503 41.4943L26.1061 43.218C27.0677 43.4394 28.2216 43.5428 29.5518 43.5428V41.774ZM26.4976 41.4931C25.6535 41.3043 25.0438 41.1037 24.6372 40.9051L23.861 42.4944C24.4446 42.7795 25.2053 43.0165 26.1115 43.2192L26.4976 41.4931ZM24.6372 40.9051C24.2012 40.6922 23.8268 40.4492 23.5085 40.1791L22.3641 41.5277C22.8058 41.9025 23.3066 42.2237 23.861 42.4944L24.6372 40.9051ZM23.5071 40.1779C22.9062 39.6701 22.5984 39.0064 22.6029 38.0942L20.8342 38.0853C20.8273 39.4761 21.3312 40.6549 22.3655 41.5289L23.5071 40.1779ZM22.6029 38.0897C22.6029 37.4952 22.7196 36.9858 22.9359 36.5443L21.3476 35.766C20.9997 36.4761 20.8342 37.2564 20.8342 38.0897H22.6029ZM22.9354 36.5455C23.3377 35.7274 24.0481 35.0922 25.1674 34.6674L24.5399 33.0138C23.0797 33.5678 21.9822 34.4756 21.3482 35.7649L22.9354 36.5455ZM25.1706 34.6662C26.3473 34.2145 27.6603 33.9822 29.12 33.9822V32.2135C27.4706 32.2135 25.9394 32.4764 24.5366 33.015L25.1706 34.6662ZM29.12 33.9822C30.6087 33.9822 32.0108 34.1476 33.3291 34.4744L33.7547 32.7577C32.2862 32.3936 30.7404 32.2135 29.12 32.2135V33.9822ZM32.6602 33.5474L32.4443 36.3197L34.2077 36.457L34.4236 33.6847L32.6602 33.5474ZM33.4907 35.5195C32.5705 35.345 31.7279 35.2535 30.9682 35.2535V37.0223C31.5904 37.0223 32.3196 37.0977 33.1613 37.2573L33.4907 35.5195ZM42.1196 36.9324L42.1147 37.8168L43.0135 37.8218L43.0039 36.923L42.1196 36.9324ZM41.7396 35.7838L41.1378 36.4319L41.1455 36.4389L41.7396 35.7838ZM39.5373 35.8702L40.1498 36.5082L40.1563 36.5018L39.5373 35.8702ZM39.0018 36.9152L38.1292 36.7717L37.9612 37.7938L38.9969 37.7995L39.0018 36.9152ZM45.5051 41.6307L46.0393 42.3354L46.3572 42.0945L46.387 41.6966L45.5051 41.6307ZM43.5964 42.3389L43.4063 41.4752L43.4011 41.4763L43.5964 42.3389ZM36.9636 42.097L36.6621 42.9284L36.6693 42.931L36.9636 42.097ZM35.4523 41.2939L34.9033 41.9873L34.914 41.9955L35.4523 41.2939ZM34.4418 40.0243L33.649 40.4163L33.6508 40.4198L34.4418 40.0243ZM35.4782 34.6611L36.0663 35.3216L36.0667 35.3212L35.4782 34.6611ZM43.5619 33.7024L43.9156 32.8918L43.9073 32.8883L43.5619 33.7024ZM45.5915 35.5679L44.7961 35.9545L44.7985 35.9595L45.5915 35.5679ZM45.9369 37.1138L46.819 37.178L46.8213 37.1459V37.1138H45.9369ZM45.8333 38.5388L45.8289 39.4232L46.6554 39.4273L46.7153 38.603L45.8333 38.5388ZM38.8291 38.5043L38.8335 37.6199L37.6798 37.6142L37.974 38.7298L38.8291 38.5043ZM39.8309 39.7393L39.3958 40.5092L39.3993 40.5112L39.8309 39.7393ZM45.2028 39.437V38.5526H45.0261L44.8629 38.6206L45.2028 39.437ZM45.6692 39.437L46.5511 39.503L46.6222 38.5526H45.6692V39.437ZM43.0039 36.923C42.9971 36.2833 42.8501 35.597 42.3337 35.1287L41.1455 36.4389C41.135 36.4294 41.1554 36.4407 41.1807 36.5171C41.2074 36.5981 41.2331 36.7334 41.2353 36.9419L43.0039 36.923ZM42.3414 35.1357C41.8772 34.7048 41.2683 34.5626 40.6687 34.5626V36.3314C41.0133 36.3314 41.1183 36.4137 41.1378 36.4319L42.3414 35.1357ZM40.6687 34.5626C40.0101 34.5626 39.3975 34.7689 38.9183 35.2385L40.1563 36.5018C40.2528 36.4072 40.3945 36.3314 40.6687 36.3314V34.5626ZM38.9248 35.2322C38.4895 35.6501 38.2271 36.1763 38.1292 36.7717L39.8745 37.0586C39.9148 36.8134 40.0093 36.6429 40.1498 36.5081L38.9248 35.2322ZM38.9969 37.7995L42.1147 37.8168L42.1245 36.0481L39.0067 36.0308L38.9969 37.7995ZM44.9708 40.9259C44.777 41.0729 44.3041 41.2775 43.4063 41.4752L43.7866 43.2026C44.7197 42.9972 45.5193 42.7297 46.0393 42.3354L44.9708 40.9259ZM43.4011 41.4763C42.5443 41.6703 41.7203 41.7654 40.9278 41.7654V43.5342C41.8625 43.5342 42.8177 43.4219 43.7917 43.2014L43.4011 41.4763ZM40.9278 41.7654C40.0944 41.7654 39.408 41.7261 38.8607 41.6524L38.6248 43.4053C39.2751 43.4929 40.0454 43.5342 40.9278 43.5342V41.7654ZM38.8607 41.6524C38.3238 41.5801 37.7898 41.4508 37.258 41.2631L36.6693 42.931C37.312 43.1578 37.9641 43.3164 38.6248 43.4053L38.8607 41.6524ZM37.2652 41.2657C36.7482 41.0781 36.3275 40.8507 35.9905 40.5922L34.914 41.9955C35.4176 42.3819 36.0045 42.6899 36.6621 42.9284L37.2652 41.2657ZM36.0012 40.6005C35.6976 40.3601 35.4396 40.0424 35.2328 39.6288L33.6508 40.4198C33.9622 41.0426 34.3779 41.5712 34.9033 41.9872L36.0012 40.6005ZM35.2345 39.6323C35.0485 39.2561 34.9375 38.7718 34.9375 38.1502H33.1688C33.1688 38.9795 33.3169 39.7447 33.6491 40.4163L35.2345 39.6323ZM34.9375 38.1502C34.9375 37.528 35.0497 36.9786 35.2617 36.49L33.6392 35.7858C33.3215 36.5178 33.1688 37.3099 33.1688 38.1502H34.9375ZM35.2617 36.49C35.4847 35.9762 35.7578 35.5963 36.0663 35.3216L34.8901 34.0006C34.358 34.4744 33.9459 35.079 33.6392 35.7858L35.2617 36.49ZM36.0667 35.3212C37.0172 34.4737 38.4671 33.9822 40.5564 33.9822V32.2135C38.2123 32.2135 36.2767 32.7642 34.8896 34.001L36.0667 35.3212ZM40.5564 33.9822C41.4939 33.9822 42.3781 34.1609 43.2165 34.5166L43.9073 32.8883C42.8457 32.4379 41.7262 32.2135 40.5564 32.2135V33.9822ZM43.2082 34.513C43.9908 34.8545 44.4966 35.3385 44.7961 35.9545L46.3868 35.1812C45.8802 34.1391 45.033 33.3795 43.9156 32.8919L43.2082 34.513ZM44.7985 35.9595C44.9637 36.294 45.0525 36.6736 45.0525 37.1138H46.8213C46.8213 36.4255 46.6798 35.7746 46.3844 35.1763L44.7985 35.9595ZM45.0549 37.0497L44.9512 38.4747L46.7153 38.603L46.819 37.178L45.0549 37.0497ZM45.8376 37.6545L38.8335 37.6199L38.8248 39.3886L45.8289 39.4232L45.8376 37.6545ZM37.974 38.7298C38.1807 39.5138 38.6864 40.1082 39.3958 40.5092L40.2661 38.9694C39.9161 38.7716 39.7539 38.5427 39.6842 38.2788L37.974 38.7298ZM39.3993 40.5112C40.1166 40.9123 41.0136 41.0728 42.016 41.0728V39.304C41.1759 39.304 40.6162 39.1651 40.2625 38.9674L39.3993 40.5112ZM42.016 41.0728C43.0916 41.0728 44.273 40.782 45.5427 40.2535L44.8629 38.6206C43.7259 39.0939 42.7828 39.304 42.016 39.304V41.0728ZM45.2028 40.3214H45.6692V38.5526H45.2028V40.3214ZM44.7873 39.371L44.6232 41.5647L46.387 41.6966L46.5511 39.503L44.7873 39.371Z" fill="#F8D24E"/>
</svg>
