<svg aria-hidden="true" style="width:0;height:0;position:absolute;overflow:hidden" xmlns="http://www.w3.org/2000/svg"><defs><symbol id="close-icon" viewBox="0 0 32 32"><path d="m17.253 16 7.37-7.37a.89.89 0 0 0-1.256-1.252l.001-.001L16 14.747 8.63 7.369a.893.893 0 0 0-1.262 1.262l-.001-.001L14.745 16l-7.376 7.368a.89.89 0 1 0 1.252 1.256l.001-.001 7.376-7.37 7.37 7.37a.89.89 0 0 0 1.254-1.256l.001.001L17.253 16z"/></symbol><symbol id="Arrow-1" viewBox="0 0 82 32"><path d="M81.414 17.414a2 2 0 0 0 0-2.828L68.686 1.858a2 2 0 1 0-2.828 2.828L77.172 16 65.858 27.314a2 2 0 1 0 2.828 2.828l12.728-12.728zM0 18h80v-4H0v4z"/></symbol><symbol id="Arrow-2" viewBox="0 0 102 32"><path d="M101.414 17.414a2 2 0 0 0 0-2.828L88.686 1.858a2 2 0 1 0-2.828 2.828L97.172 16 85.858 27.314a2 2 0 1 0 2.828 2.828l12.728-12.728zM0 18h100v-4H0v4z"/></symbol><symbol id="Arrow-3" viewBox="0 0 69 32"><path d="M68.081 17.414a2 2 0 0 0 0-2.829L55.353 1.857a2 2 0 1 0-2.828 2.828l11.314 11.314-11.314 11.314a2 2 0 1 0 2.828 2.828l12.728-12.728zM0 18h66.667v-4H0v4z"/></symbol><symbol id="ice-crem-desk" viewBox="0 0 35 32"><path d="M17.675 14.685c1.642-4.393-1.758-6.797-4.012-8.377-.431-.323-.862-.624-1.211-.901-.624-.519-1.083-1.204-1.324-1.972s-.252-1.59-.033-2.365a.46.46 0 0 0-.358-.571.482.482 0 0 0-.25.018 7.628 7.628 0 0 0-2.09 1.228c-.601.457-1.088 1.043-1.423 1.714s-.511 1.408-.512 2.156c-.425.33-.801.718-1.116 1.151-.58.78-.87 1.732-.823 2.698-.69.625-1.204 1.416-1.492 2.295s-.339 1.817-.15 2.722c-.275.164-.487.412-.605.706s-.135.618-.047.923c.087.304.273.572.53.762s.569.292.89.29h.03v2.498c0 .253.102.497.284.676s.428.28.686.28h.754l1.228 10.493c.026.234.138.45.315.606s.407.244.646.243h5.111a.973.973 0 0 0 .965-.85l1.228-10.493h.754c.257 0 .504-.101.686-.28s.284-.422.284-.676v-2.498h.03c.39 0 .764-.153 1.039-.424s.43-.64.43-1.024a1.41 1.41 0 0 0-.431-1.032l-.013.004zM6.612 6.715c.621 2.298 3.017 3.203 5.202 4.01a.477.477 0 0 0 .571-.059.458.458 0 0 0-.052-.71.475.475 0 0 0-.188-.079c-2.353-.879-4.573-1.699-4.741-4.048-.039-.646.084-1.291.358-1.879s.692-1.099 1.215-1.49c.328-.269.68-.508 1.052-.714-.024.294-.024.59 0 .884.05.673.237 1.33.549 1.93s.744 1.133 1.27 1.566c.358.302.802.612 1.293.943 1.133.803 2.422 1.699 3.241 2.914a4.482 4.482 0 0 1 .47 4.312h-1.905c-3.926 0-8.438-1.071-9.33-4.07-.177-.617-.176-1.27.004-1.887s.53-1.171 1.013-1.601l-.022-.021zm3.534 14.482 1.439 1.419-1.439 1.419-1.439-1.427 1.439-1.41zm3.301 3.726-1.19 1.172-1.439-1.419 1.439-1.415 1.25 1.228-.06.433zm-3.301 3.254-1.439-1.419 1.439-1.419 1.439 1.419-1.439 1.419zm-.659-3.492-1.439 1.419-1.198-1.181-.052-.425 1.25-1.228 1.439 1.415zm-2.103 2.073-.289.285-.073-.646.362.361zm-.151 1.453.814-.803 1.582 1.572a.72.72 0 0 0 .03.093H7.332l-.099-.862zm5.016-.803.815.803-.099.85h-2.392l1.676-1.652zm.948-.365-.289-.285.366-.361-.078.646zm.431-3.713-.72-.722.914-.901-.194 1.623zm-1.383-1.368-1.366-1.342h2.732l-1.366 1.342zm-4.202 0L6.677 20.62h2.732l-1.366 1.342zm4.654 9.074H7.59c-.008-.001-.015-.004-.02-.01s-.009-.012-.01-.02l-.121-1.02h5.413l-.116 1.02c-.001.008-.005.016-.012.021s-.014.008-.023.008h-.004zm3.952-14.801h-1.5a.468.468 0 0 0-.361.119.45.45 0 0 0-.114.529.446.446 0 0 0 .114.155.486.486 0 0 0 .361.119h.534v2.498c-.001.008-.005.016-.011.021s-.015.008-.023.008H4.629c-.008 0-.017-.003-.023-.008s-.01-.013-.011-.021v-2.498h8.537c.116-.011.224-.064.303-.15a.458.458 0 0 0 0-.622.476.476 0 0 0-.303-.15H3.651a.547.547 0 0 1-.409-.136.534.534 0 0 1-.128-.6.542.542 0 0 1 .318-.286.543.543 0 0 1 .219-.025h.978c.116-.011.224-.064.303-.15a.458.458 0 0 0 0-.622.474.474 0 0 0-.303-.15h-.862a4.499 4.499 0 0 1 .94-3.695c.302.926 1.077 2.192 3.017 3.199 1.823.939 4.236 1.419 7.171 1.419h1.724a.543.543 0 0 1 .409.135.534.534 0 0 1 .128.6.542.542 0 0 1-.318.286.562.562 0 0 1-.219.026h.03z"/><path d="m19.692 28.694-.34.521.007.004.333-.525zm3.655.176.622-.014-.016-.72-.71.12.104.613zm.043 1.912.158.601.474-.125-.011-.49-.622.014zm-4.797.092.14-.606-.004-.001-.136.607zm-2.367-1.057.402-.474-.001-.001-.401.475zm-.857-1.943.622.003v-.003h-.622zm.298-1.36-.558-.274v.001l.558.274zm1.906-1.627.221.581.002-.001-.223-.58zm6.108-.158.62.048.041-.525-.511-.127-.15.603zm-.152 1.949-.116.611.682.129.054-.692-.62-.048zm-1.657-.797c-.933 0-1.717.1-2.29.352a1.87 1.87 0 0 0-.755.567 1.461 1.461 0 0 0-.296.899h1.243c0-.073.018-.113.044-.148a.655.655 0 0 1 .265-.18c.334-.147.909-.246 1.79-.246v-1.243zm-3.342 1.817c0 .64.287 1.167.823 1.517l.679-1.042a.504.504 0 0 1-.258-.475h-1.243zm.83 1.521c.508.322 1.178.442 1.929.442v-1.243c-.649 0-1.044-.11-1.264-.25l-.665 1.05zm1.929.443c.738 0 1.459-.059 2.162-.179l-.208-1.226c-.632.107-1.283.161-1.954.161v1.243zm1.437-.778.043 1.912 1.243-.028-.043-1.912-1.243.028zm.505 1.297a9.242 9.242 0 0 1-2.355.283v1.243c.953 0 1.844-.106 2.672-.324l-.316-1.202zm-2.355.283c-.878 0-1.589-.069-2.143-.197l-.279 1.212c.676.156 1.487.228 2.422.228v-1.243zm-2.147-.197c-.593-.133-1.022-.274-1.308-.413l-.546 1.117c.41.2.945.367 1.582.509l.271-1.213zm-1.308-.413c-.306-.15-.57-.32-.793-.51l-.804.948c.31.263.662.489 1.052.68l.546-1.117zm-.794-.512c-.422-.357-.639-.824-.636-1.465l-1.243-.006c-.005.978.349 1.806 1.076 2.421l.803-.95zm-.636-1.468c0-.418.082-.776.234-1.086l-1.117-.547a3.666 3.666 0 0 0-.361 1.634h1.243zm.234-1.085c.283-.575.782-1.022 1.569-1.32l-.441-1.163c-1.026.39-1.798 1.028-2.244 1.934l1.116.549zm1.571-1.321c.827-.318 1.75-.481 2.776-.481v-1.243c-1.16 0-2.236.185-3.222.563l.446 1.161zm2.777-.481c1.047 0 2.032.116 2.959.346l.299-1.207a13.494 13.494 0 0 0-3.258-.383v1.243zm2.488-.306-.152 1.949 1.24.096.152-1.949-1.24-.097zm.584 1.386a9.585 9.585 0 0 0-1.773-.187v1.243c.437 0 .95.053 1.542.165l.232-1.222zm6.066.994-.003.622.632.003-.007-.632-.622.007zm-.267-.808-.423.456.005.005.418-.46zm-1.548.061.431.448.005-.005-.435-.444zm-.377.735-.613-.101-.118.718.728.004.003-.622zm4.572 3.315.376.495.223-.169.021-.28-.62-.046zm-1.342.497-.134-.607-.004.001.137.606zm-4.662-.169-.212.584.005.002.207-.586zm-1.063-.565-.386.487.004.003.004.003.378-.493zm-.71-.893-.557.276.001.002.556-.278zm.728-3.77.413.464-.414-.464zm5.683-.674.249-.57-.006-.002-.243.572zm1.427 1.312-.559.272.002.003.557-.275zm.243 1.086.62.045.002-.023v-.023h-.622zm-.073 1.002-.003.622.581.003.042-.579-.62-.045zm-4.924-.024.003-.622-.811-.004.207.784.601-.159zm.704.868-.306.541.003.001.303-.543zm3.777-.212V28.2h-.124l-.115.048.239.574zm.327 0 .62.046.05-.668h-.67v.622zm-1.873-1.768c-.005-.45-.108-.932-.471-1.261l-.835.921c-.007-.007.007.001.025.055a.994.994 0 0 1 .038.299l1.243-.013zm-.466-1.256c-.326-.303-.754-.403-1.176-.403v1.243c.242 0 .316.058.33.071l.846-.911zm-1.176-.403c-.463 0-.894.145-1.23.475l.87.888c.068-.067.168-.12.36-.12v-1.243zm-1.226.471a1.893 1.893 0 0 0-.559 1.082l1.227.202a.653.653 0 0 1 .194-.387l-.861-.897zm.051 1.804 2.192.012.007-1.243-2.192-.012-.007 1.243zm4.199 2.198c-.136.103-.469.247-1.1.386l.267 1.214c.656-.144 1.218-.332 1.584-.61l-.751-.991zm-1.103.387a7.887 7.887 0 0 1-1.739.203v1.243c.657 0 1.329-.079 2.013-.234l-.275-1.213zm-1.739.203c-.586 0-1.068-.028-1.453-.079l-.166 1.232c.457.062.999.09 1.619.09v-1.243zm-1.453-.079a5.66 5.66 0 0 1-1.127-.274l-.414 1.172c.452.16.91.271 1.375.334l.166-1.232zm-1.121-.272a3.327 3.327 0 0 1-.896-.474l-.757.987a4.56 4.56 0 0 0 1.229.656l.424-1.169zm-.889-.468a1.979 1.979 0 0 1-.54-.683l-1.112.556c.219.438.511.809.881 1.102l.772-.975zm-.539-.68c-.131-.264-.209-.605-.209-1.042h-1.243c0 .583.104 1.121.338 1.593l1.115-.551zm-.209-1.042c0-.437.079-.824.228-1.167l-1.141-.495a4.142 4.142 0 0 0-.331 1.662h1.243zm.228-1.167c.157-.361.349-.628.566-.821L24.629 25a3.53 3.53 0 0 0-.879 1.255l1.141.495zm.566-.822c.668-.596 1.688-.941 3.156-.941v-1.243c-1.648 0-3.009.387-3.984 1.257l.828.928zm3.156-.941c.659 0 1.281.126 1.87.376l.486-1.145a5.967 5.967 0 0 0-2.356-.474v1.243zm1.864.373c.55.24.906.58 1.116 1.013l1.118-.544c-.356-.733-.952-1.267-1.737-1.609l-.497 1.14zm1.118 1.017c.116.235.179.502.179.812h1.243c0-.484-.099-.942-.307-1.362l-1.115.55zm.181.766-.073 1.002 1.24.09.073-1.002-1.24-.09zm.55.425-4.924-.024-.006 1.243 4.924.024.006-1.243zm-5.528.756c.145.551.501.969 1 1.251l.612-1.082c-.246-.139-.36-.3-.409-.485l-1.202.317zm1.002 1.253c.504.282 1.135.395 1.84.395v-1.243c-.591 0-.984-.098-1.233-.237l-.607 1.085zm1.839.394c.756 0 1.587-.204 2.479-.576l-.478-1.148c-.799.333-1.462.48-2.001.48v1.243zm2.241-.528h.328V28.2h-.328v1.243zm-.293-.668-.115 1.542 1.24.093.115-1.542-1.24-.093z"/></symbol><symbol id="ice-crem-tab" viewBox="0 0 34 32"><path d="M17.413 14.169c1.635-4.384-1.751-6.784-3.995-8.362-.429-.322-.858-.623-1.206-.899-.621-.518-1.079-1.201-1.318-1.969s-.251-1.587-.033-2.361a.45.45 0 0 0-.133-.457c-.062-.057-.139-.096-.223-.112s-.169-.01-.249.018a7.584 7.584 0 0 0-2.081 1.225c-.598.456-1.083 1.041-1.417 1.711s-.508 1.406-.51 2.152c-.423.33-.797.716-1.111 1.149a4.178 4.178 0 0 0-.819 2.693c-.687.624-1.199 1.413-1.486 2.291s-.338 1.814-.149 2.717c-.273.163-.485.411-.602.704s-.134.617-.047.921c.087.304.272.571.527.761s.567.291.886.289h.03v2.493c0 .253.102.496.283.675s.427.279.683.279h.751L6.417 30.56c.025.233.137.449.314.605s.406.243.643.243h5.089c.238-.001.467-.087.644-.244s.29-.372.317-.605l1.223-10.473h.751c.256 0 .502-.1.683-.279s.283-.422.283-.675v-2.493h.03c.388 0 .76-.152 1.035-.423s.428-.639.428-1.022a1.409 1.409 0 0 0-.429-1.03l-.013.004zM6.399 6.214c.618 2.294 3.003 3.197 5.179 4.003a.473.473 0 0 0 .568-.059.458.458 0 0 0-.051-.71.477.477 0 0 0-.187-.079c-2.343-.878-4.552-1.696-4.72-4.041-.039-.645.083-1.289.356-1.875s.689-1.097 1.21-1.487a6.97 6.97 0 0 1 1.047-.712 5.411 5.411 0 0 0 0 .882c.05.672.236 1.327.547 1.927s.741 1.131 1.264 1.563c.356.301.798.611 1.287.941 1.128.801 2.411 1.696 3.226 2.909a4.49 4.49 0 0 1 .467 4.304h-1.896c-3.909 0-8.401-1.069-9.289-4.062-.176-.616-.175-1.268.004-1.883s.528-1.169 1.008-1.598l-.021-.021zm3.518 14.455 1.433 1.416-1.433 1.416-1.433-1.425 1.433-1.408zm3.287 3.719-1.184 1.17-1.433-1.416 1.433-1.412 1.244 1.225-.06.433zm-3.287 3.248L8.484 26.22l1.433-1.416 1.433 1.416-1.433 1.416zm-.656-3.486-1.433 1.416-1.193-1.179-.051-.424 1.244-1.225 1.433 1.412zm-2.094 2.069-.287.284-.073-.644.36.36zm-.15 1.451.811-.801 1.575 1.569a.72.72 0 0 0 .03.093H7.116l-.099-.861zm4.994-.802.811.801-.099.848h-2.381l1.669-1.649zm.944-.364-.287-.284.365-.36-.077.644zm.429-3.706-.717-.721.91-.899-.193 1.62zm-1.377-1.366-1.36-1.34h2.72l-1.36 1.34zm-4.183 0-1.36-1.34h2.72l-1.36 1.34zm4.633 9.057H7.373c-.008-.001-.015-.004-.02-.01s-.009-.012-.01-.02l-.12-1.018h5.389l-.116 1.018c-.001.008-.005.016-.011.021s-.014.008-.023.008h-.004zm3.935-14.773h-1.493a.48.48 0 0 0-.359.118.456.456 0 0 0-.113.529.456.456 0 0 0 .28.251c.062.02.127.028.192.021h.532v2.493c-.001.008-.005.016-.011.021s-.014.008-.023.008H4.426c-.008 0-.017-.003-.023-.008s-.01-.013-.011-.021v-2.493h8.5a.468.468 0 0 0 .423-.46.456.456 0 0 0-.122-.311.47.47 0 0 0-.301-.149H3.453a.536.536 0 0 1-.535-.311.518.518 0 0 1 .128-.6.537.537 0 0 1 .407-.135h.974a.468.468 0 0 0 .423-.46c0-.115-.043-.226-.122-.311s-.186-.138-.301-.149h-.858c-.123-.645-.103-1.309.059-1.946s.461-1.232.877-1.743c.3.924 1.073 2.188 3.003 3.193 1.815.937 4.218 1.416 7.139 1.416h1.716a.536.536 0 0 1 .535.311.518.518 0 0 1-.128.6.537.537 0 0 1-.407.135h.03zM19.817 27.915l-.343.527.007.004.337-.531zm3.697.178.629-.014-.016-.728-.718.122.105.62zm.043 1.935.16.608.48-.126-.011-.496-.629.014zm-4.852.092.141-.613-.004-.001-.137.614zm-2.395-1.069.407-.48-.001-.001-.406.48zm-.866-1.965.629.003v-.003h-.629zm.301-1.376-.564-.278v.001l.565.277zm1.929-1.646.223.588.002-.001-.225-.587zm6.178-.159.627.049.041-.531-.517-.128-.151.61zm-.154 1.971-.117.618.69.131.055-.7-.627-.049zm-1.676-.807c-.944 0-1.737.101-2.317.356a1.896 1.896 0 0 0-.764.574c-.203.268-.3.58-.3.909h1.258c0-.074.018-.115.044-.149.033-.043.106-.111.268-.182.338-.148.92-.249 1.81-.249V25.07zm-3.38 1.839c0 .647.29 1.181.832 1.534l.687-1.054a.51.51 0 0 1-.261-.48h-1.258zm.839 1.538c.514.325 1.191.448 1.952.448v-1.258c-.656 0-1.056-.111-1.279-.253l-.673 1.063zm1.951.448c.746 0 1.476-.06 2.187-.181l-.21-1.24c-.639.108-1.298.163-1.977.163v1.258zm1.453-.787.043 1.934 1.257-.028-.043-1.934-1.257.028zm.512 1.313a9.355 9.355 0 0 1-2.383.286v1.258c.964 0 1.866-.108 2.703-.328l-.32-1.216zm-2.382.286c-.888 0-1.607-.07-2.168-.199l-.282 1.226c.684.157 1.504.231 2.45.231v-1.258zm-2.172-.2c-.6-.134-1.034-.277-1.323-.418l-.552 1.13c.415.203.956.371 1.6.515l.275-1.227zm-1.323-.418a3.836 3.836 0 0 1-.803-.516l-.814.959c.314.267.67.495 1.064.687l.552-1.13zm-.804-.517c-.427-.361-.646-.833-.643-1.482l-1.258-.006c-.005.989.353 1.827 1.089 2.449l.812-.961zm-.643-1.485c0-.423.083-.785.237-1.099l-1.129-.553a3.718 3.718 0 0 0-.365 1.652h1.258zm.237-1.098c.286-.582.791-1.033 1.587-1.336l-.446-1.176c-1.038.394-1.819 1.04-2.27 1.956l1.129.555zm1.589-1.336c.837-.321 1.77-.486 2.808-.486v-1.258c-1.173 0-2.262.187-3.259.57l.451 1.174zm2.809-.487c1.059 0 2.056.118 2.993.35l.303-1.221a13.646 13.646 0 0 0-3.296-.387v1.258zm2.517-.309-.154 1.971 1.254.098.154-1.971-1.254-.098zm.591 1.402a9.734 9.734 0 0 0-1.794-.189v1.258c.442 0 .961.054 1.56.167l.234-1.236zm6.136 1.005-.003.629.639.004-.007-.639-.629.007zm-.271-.817-.428.461.005.005.422-.466zm-1.566.062.436.454.005-.005-.44-.449zm-.38.743-.62-.102-.119.727.736.004.003-.629zm4.624 3.353.38.501.226-.171.021-.283-.627-.047zm-1.357.504-.135-.614-.004.001.139.613zm-4.717-.172-.214.591.005.002.209-.593zm-1.074-.571-.39.493.008.006.383-.499zm-.719-.903-.564.279.001.003.563-.281zm.737-3.814.418.47-.419-.469zm5.748-.682.252-.576-.006-.003-.246.579zm1.444 1.327-.566.275.002.004.564-.278zm.245 1.099.627.046.002-.023v-.023h-.629zm-.073 1.013-.003.629.588.003.043-.586-.627-.046zm-4.981-.024.003-.629-.82-.004.209.793.608-.16zm.712.878-.309.547.003.001.307-.549zm3.82-.215v-.629h-.126l-.116.048.242.581zm.332 0 .627.047.051-.676h-.678v.629zm-1.895-1.788c-.005-.455-.109-.943-.477-1.276l-.845.932c-.007-.007.007.001.025.056.019.058.037.154.039.302l1.258-.013zm-.472-1.271c-.33-.306-.763-.408-1.189-.408v1.258c.245 0 .32.059.334.071l.856-.922zm-1.189-.407c-.468 0-.904.147-1.245.481l.88.898c.069-.067.169-.121.364-.121v-1.258zm-1.24.476c-.31.297-.496.671-.566 1.095l1.241.204a.66.66 0 0 1 .196-.391l-.871-.907zm.051 1.826 2.217.012.007-1.258-2.217-.012-.007 1.258zm4.248 2.223c-.138.105-.474.25-1.113.391l.27 1.228c.664-.146 1.232-.336 1.602-.617l-.76-1.002zm-1.116.391a7.95 7.95 0 0 1-1.759.206v1.258c.665 0 1.344-.08 2.037-.237l-.278-1.227zm-1.759.206c-.593 0-1.081-.028-1.47-.08l-.168 1.247c.462.062 1.01.092 1.638.092v-1.258zm-1.47-.081a5.637 5.637 0 0 1-1.14-.277l-.419 1.186c.457.161.921.274 1.391.337l.168-1.247zm-1.134-.274a3.328 3.328 0 0 1-.906-.479l-.765.998c.358.275.775.494 1.243.663l.429-1.182zm-.899-.474a2.003 2.003 0 0 1-.546-.691l-1.125.563c.221.443.517.819.891 1.115l.781-.986zm-.545-.688c-.132-.268-.211-.612-.211-1.054h-1.258c0 .59.105 1.134.342 1.611l1.127-.558zm-.212-1.054c0-.442.08-.833.231-1.181l-1.154-.501a4.184 4.184 0 0 0-.334 1.681h1.258zm.231-1.181c.159-.365.353-.636.572-.831l-.836-.939a3.601 3.601 0 0 0-.89 1.269l1.154.501zm.572-.831c.676-.603 1.707-.952 3.193-.952v-1.258c-1.667 0-3.043.392-4.03 1.271l.837.939zm3.193-.952a4.79 4.79 0 0 1 1.892.38l.491-1.158a6.05 6.05 0 0 0-2.383-.48v1.258zm1.886.378c.556.243.916.587 1.129 1.025l1.131-.55c-.36-.741-.963-1.281-1.757-1.628l-.503 1.153zm1.131 1.028c.117.238.181.508.181.821h1.258c0-.489-.101-.952-.311-1.378l-1.128.557zm.182.775-.074 1.013 1.254.091.074-1.013-1.254-.091zm.557.431-4.981-.025-.006 1.258 4.981.025.006-1.258zm-5.592.764c.147.558.507.98 1.011 1.265l.619-1.095c-.249-.141-.364-.303-.414-.491l-1.216.321zm1.013 1.267c.51.285 1.148.399 1.861.399v-1.258c-.597 0-.995-.099-1.247-.239l-.614 1.098zm1.861.399c.765 0 1.605-.207 2.508-.583l-.483-1.161c-.809.337-1.479.486-2.024.486v1.258zm2.266-.534h.332v-1.258h-.332v1.258zm-.295-.676-.117 1.56 1.254.094.117-1.56-1.254-.094z"/></symbol><symbol id="mobile-close" viewBox="0 0 32 32"><path d="M28.614 1.13 16 13.744 3.386 1.13a1.594 1.594 0 0 0-2.207.049 1.596 1.596 0 0 0-.049 2.207L13.738 16 1.127 28.611a1.6 1.6 0 0 0-.029 2.284 1.579 1.579 0 0 0 1.147.468 1.616 1.616 0 0 0 1.137-.493L16 18.259l12.614 12.614a1.6 1.6 0 0 0 2.207-.049 1.596 1.596 0 0 0 .049-2.207L18.256 16.003 30.87 3.385a1.6 1.6 0 0 0 .029-2.284 1.579 1.579 0 0 0-1.147-.468 1.601 1.601 0 0 0-1.137.494v.003z"/></symbol><symbol id="ice-crem-mob" viewBox="0 0 35 32"><path d="M17.384 14.109c1.632-4.366-1.748-6.756-3.988-8.327-.428-.321-.857-.621-1.204-.895-.62-.516-1.077-1.196-1.316-1.96s-.251-1.58-.033-2.351a.447.447 0 0 0-.133-.455.474.474 0 0 0-.471-.094 7.592 7.592 0 0 0-2.078 1.22c-.597.454-1.081 1.037-1.415 1.703s-.507 1.4-.509 2.143a5.671 5.671 0 0 0-1.109 1.144 4.154 4.154 0 0 0-.818 2.681c-.686.621-1.197 1.407-1.483 2.281s-.337 1.806-.149 2.706c-.273.163-.484.409-.601.701s-.134.615-.047.917.272.569.526.758c.255.189.566.29.885.288h.03v2.483c0 .252.102.494.282.672s.426.278.682.278h.75l1.221 10.43c.025.232.137.447.313.603s.405.242.642.242h5.08c.237 0 .466-.087.643-.242s.29-.37.317-.602l1.221-10.43h.75c.256 0 .501-.1.682-.278s.282-.42.282-.672V16.57h.03c.387 0 .759-.152 1.033-.422s.428-.636.428-1.018a1.422 1.422 0 0 0-.429-1.026l-.013.004zM6.388 6.188c.617 2.284 2.999 3.184 5.17 3.986a.466.466 0 0 0 .394.044.475.475 0 0 0 .287-.271.447.447 0 0 0-.028-.39.459.459 0 0 0-.322-.227C9.55 8.456 7.344 7.641 7.177 5.306c-.039-.642.083-1.283.356-1.867s.688-1.093 1.208-1.481a6.983 6.983 0 0 1 1.045-.709 5.362 5.362 0 0 0 0 .878c.05.669.235 1.322.546 1.919s.74 1.126 1.262 1.557c.356.3.797.608 1.285.937 1.127.798 2.407 1.689 3.221 2.897a4.449 4.449 0 0 1 .467 4.285h-1.893c-3.902 0-8.387-1.064-9.274-4.045-.176-.613-.174-1.263.004-1.875s.527-1.164 1.007-1.591L6.39 6.19zm3.513 14.394 1.431 1.41-1.431 1.41-1.431-1.419 1.431-1.402zm3.281 3.704L12 25.451l-1.431-1.41L12 22.635l1.242 1.22-.06.431zM9.901 27.52 8.47 26.11l1.431-1.41 1.431 1.41-1.431 1.41zm-.656-3.471-1.431 1.41-1.191-1.174-.051-.422 1.242-1.22 1.431 1.406zm-2.09 2.061-.287.283-.073-.642.36.359zm-.15 1.444.81-.798 1.572 1.562a.72.72 0 0 0 .03.093H7.104l-.099-.857zm4.986-.798.81.798-.099.845h-2.378l1.666-1.643zm.943-.363-.287-.283.364-.359-.077.642zm.428-3.691-.715-.718.908-.895-.193 1.613zm-1.375-1.36-1.358-1.334h2.716l-1.358 1.334zm-4.177 0-1.358-1.334h2.716L7.81 21.342zm4.627 9.02H7.361c-.008-.001-.015-.004-.02-.01s-.009-.012-.01-.02l-.12-1.013h5.38l-.116 1.013c-.001.008-.005.016-.011.021s-.014.008-.023.008h-.004zm3.928-14.711h-1.491a.48.48 0 0 0-.359.117.462.462 0 0 0-.153.34.457.457 0 0 0 .32.436.48.48 0 0 0 .192.021h.531v2.483c-.001.008-.005.016-.011.021s-.014.008-.023.008H4.418c-.008 0-.017-.003-.023-.008s-.01-.013-.011-.021v-2.483h8.486c.116-.011.223-.064.301-.149a.457.457 0 0 0-.301-.767H3.446a.549.549 0 0 1-.406-.135.513.513 0 0 1 0-.772.543.543 0 0 1 .406-.135h.972c.116-.011.223-.064.301-.149a.457.457 0 0 0-.301-.767h-.857c-.123-.643-.103-1.304.058-1.938s.46-1.226.875-1.736c.3.921 1.071 2.179 2.999 3.18 1.812.933 4.211 1.41 7.128 1.41h1.713a.547.547 0 0 1 .406.135.51.51 0 0 1 .128.597.524.524 0 0 1-.317.285.517.517 0 0 1-.217.025h.03zM19.859 28.392l-.342.525.007.004.335-.529zm3.682.177.626-.014-.016-.725-.715.121.105.617zm.043 1.926.159.606.478-.126-.011-.494-.626.014zm-4.832.092.141-.61-.004-.001-.137.611zm-2.385-1.064.405-.478-.001-.001-.404.478zm-.862-1.957.626.003v-.003h-.626zm.299-1.37-.562-.276v.001l.562.276zm1.921-1.639.222.586.002-.001-.224-.585zm6.152-.159.624.049.041-.529-.515-.128-.151.608zm-.153 1.963-.117.615.687.13.054-.697-.624-.049zm-1.67-.804c-.94 0-1.73.1-2.307.354-.296.13-.565.313-.761.571a1.474 1.474 0 0 0-.298.905h1.252c0-.073.018-.114.044-.149.032-.043.106-.111.267-.182.336-.148.916-.248 1.803-.248v-1.252zm-3.366 1.832c0 .644.289 1.176.829 1.528l.684-1.049a.508.508 0 0 1-.26-.478h-1.252zm.836 1.532c.512.324 1.186.446 1.944.446v-1.253c-.654 0-1.051-.111-1.273-.251l-.67 1.058zm1.943.445c.743 0 1.469-.06 2.178-.18l-.21-1.235c-.637.108-1.293.162-1.968.162v1.253zm1.448-.783.043 1.926 1.252-.028-.043-1.926-1.252.028zm.509 1.307a9.327 9.327 0 0 1-2.373.285v1.252c.96 0 1.858-.107 2.691-.326l-.319-1.211zm-2.372.285c-.885 0-1.601-.07-2.159-.198l-.281 1.221c.681.157 1.498.23 2.44.23v-1.252zm-2.163-.199c-.598-.134-1.029-.276-1.317-.416l-.55 1.125c.413.202.952.37 1.594.513l.273-1.222zm-1.318-.416a3.813 3.813 0 0 1-.799-.514l-.81.955c.313.265.667.493 1.06.685l.55-1.125zm-.8-.515c-.426-.36-.644-.83-.64-1.476l-1.252-.006c-.005.985.352 1.82 1.084 2.438l.809-.957zm-.64-1.479c0-.421.083-.782.236-1.094l-1.125-.551a3.701 3.701 0 0 0-.364 1.645h1.252zm.235-1.094c.285-.579.788-1.029 1.581-1.33l-.444-1.171c-1.034.392-1.811 1.035-2.26 1.948l1.124.553zm1.583-1.33c.833-.32 1.763-.484 2.797-.484v-1.253c-1.168 0-2.252.186-3.246.568l.449 1.169zm2.797-.485c1.054 0 2.047.117 2.981.348l.301-1.216a13.586 13.586 0 0 0-3.282-.385v1.253zm2.507-.308-.153 1.963 1.249.097.153-1.963-1.249-.097zm.588 1.397a9.646 9.646 0 0 0-1.786-.188v1.252c.441 0 .957.053 1.553.166l.233-1.231zm6.11 1-.003.626.636.004-.007-.636-.626.007zm-.269-.813-.426.459.005.005.421-.464zm-1.559.061.434.452.005-.004-.438-.447zm-.38.74-.618-.102-.119.724.733.004.003-.626zm4.606 3.339.378.499.225-.171.021-.282-.624-.047zm-1.352.502-.135-.612-.004.001.138.611zm-4.697-.171-.214.589.005.002.208-.59zm-1.07-.569-.389.491.008.006.381-.497zm-.716-.899-.561.278.001.003.56-.28zm.734-3.798.416.468-.417-.467zm5.725-.679.25-.574-.006-.003-.245.576zm1.437 1.321-.563.274.002.003.562-.277zm.244 1.095.625.045.002-.023v-.023h-.626zm-.073 1.009-.003.626.585.003.042-.584-.625-.045zm-4.96-.025.003-.626-.817-.004.208.79.606-.16zm.71.875-.308.545.003.001.306-.547zm3.803-.214v-.626h-.125l-.116.048.241.578zm.331 0 .624.047.05-.673h-.675v.626zm-1.888-1.78c-.005-.453-.109-.939-.475-1.271l-.841.928c-.007-.007.007.001.025.055.019.057.037.153.039.301l1.252-.013zm-.469-1.266c-.329-.305-.76-.406-1.184-.406v1.252c.244 0 .318.058.332.071l.852-.918zm-1.184-.406c-.466 0-.9.146-1.239.479l.877.895c.068-.067.169-.121.363-.121v-1.252zm-1.235.474a1.91 1.91 0 0 0-.563 1.09l1.236.203a.666.666 0 0 1 .195-.39l-.867-.904zm.051 1.818 2.208.012.007-1.253-2.208-.012-.007 1.253zm4.23 2.214c-.137.104-.472.249-1.108.389l.269 1.223c.661-.145 1.227-.335 1.595-.614l-.757-.998zm-1.111.39a7.946 7.946 0 0 1-1.752.205v1.252c.662 0 1.338-.079 2.028-.236l-.277-1.222zm-1.752.205c-.59 0-1.076-.028-1.464-.08l-.167 1.241c.461.062 1.006.091 1.631.091v-1.252zm-1.464-.08a5.672 5.672 0 0 1-1.135-.276l-.417 1.181c.455.161.917.273 1.385.336l.167-1.241zm-1.129-.274a3.363 3.363 0 0 1-.903-.477l-.762.994c.357.274.772.492 1.238.661l.427-1.177zm-.895-.471a1.987 1.987 0 0 1-.544-.688l-1.12.56c.221.441.515.815.887 1.11l.777-.982zm-.543-.686c-.132-.266-.21-.609-.21-1.05h-1.253c0 .587.105 1.129.34 1.605l1.123-.555zm-.211-1.049c0-.441.079-.83.23-1.176l-1.149-.499a4.163 4.163 0 0 0-.333 1.674h1.253zm.23-1.176c.158-.364.351-.633.57-.827l-.833-.935a3.56 3.56 0 0 0-.886 1.264l1.149.499zm.57-.828c.673-.6 1.7-.948 3.179-.948v-1.253c-1.66 0-3.031.39-4.013 1.266l.834.935zm3.179-.948c.664 0 1.29.126 1.884.378l.489-1.153a6.018 6.018 0 0 0-2.373-.478v1.253zm1.878.376c.554.242.912.585 1.124 1.021l1.126-.548c-.359-.738-.959-1.276-1.75-1.621l-.501 1.148zm1.126 1.024c.117.237.18.506.18.817h1.252c0-.487-.1-.948-.309-1.372l-1.123.555zm.182.772-.073 1.009 1.249.091.073-1.009-1.249-.091zm.554.429-4.96-.024-.006 1.252 4.96.024.006-1.252zm-5.569.761c.146.555.505.976 1.007 1.26l.616-1.09c-.248-.14-.363-.302-.412-.489l-1.211.319zm1.01 1.262c.508.284 1.143.398 1.853.398v-1.252c-.595 0-.991-.098-1.242-.238l-.611 1.093zm1.853.397c.762 0 1.598-.206 2.497-.58l-.481-1.156c-.805.335-1.473.484-2.016.484v1.252zm2.256-.532h.33v-1.252h-.33v1.252zm-.294-.673-.116 1.553 1.249.093.116-1.553-1.249-.093z"/></symbol><symbol id="icon-burger" viewBox="0 0 32 32"><path fill="none" stroke="#fff" style="stroke:var(--color3,#fff)" stroke-linecap="round" stroke-width="2" d="M6 10h20M6 16h20M6 22h20"/></symbol><symbol id="cow" viewBox="0 0 31 32"><path d="M6.002.778c-.254.219-.979 1.733-1.24 2.559-.31 1.024-.416 1.791-.373 2.852.056 1.514.437 2.661 1.275 3.861.218.314.394.585.394.607 0 .015-.134.029-.303.029-.726 0-2.085.241-3.128.556C.972 11.739 0 12.609 0 13.582c0 .344.31.929.641 1.228.641.578 2.043 1.126 3.55 1.389.521.095 2.071.256 2.416.263.063 0 .085.336.085 1.44 0 .951.035 1.689.106 2.142.254 1.623 1.043 3.341 2.085 4.555l.359.417-.24.387c-.352.548-.486.965-.528 1.587-.106 1.492.824 2.815 2.62 3.744 3.423 1.777 8.742 1.082 10.735-1.404.972-1.214 1.085-2.603.317-3.861l-.239-.388.43-.519c.803-.965 1.324-1.93 1.719-3.151.331-1.038.458-2.04.458-3.627 0-.724.021-1.323.056-1.323.324-.007 1.881-.175 2.374-.263 1.515-.263 2.888-.804 3.55-1.389.331-.3.641-.885.641-1.228 0-1.082-1.099-1.96-3.142-2.486-.669-.175-1.93-.387-2.543-.424l-.289-.022.317-.439c.394-.534.888-1.572 1.078-2.252.535-1.967.204-4.255-.944-6.442-.479-.907-.81-1.119-1.198-.76-.148.139-.211.329-.352 1.016-.437 2.186-1.247 3.919-2.43 5.199l-.521.57H9.967l-.465-.505c-1.155-1.272-1.993-3.071-2.43-5.264-.141-.687-.204-.877-.352-1.016-.232-.212-.458-.205-.718.022zm.901 4.336c.373.819.838 1.587 1.388 2.296l.437.563-.458.344a4.6 4.6 0 0 0-1.141 1.331l-.134.241-.338-.461c-1.155-1.594-1.444-3.546-.831-5.571.296-.98.289-.972.556-.124.127.409.366 1.031.521 1.382zm18.336-1.543a7.22 7.22 0 0 1 .402 2.464c0 1.331-.352 2.457-1.092 3.466l-.331.453-.247-.417a4.38 4.38 0 0 0-1.233-1.353c-.19-.124-.338-.249-.338-.263 0-.022.134-.19.303-.373.782-.87 1.62-2.435 2.036-3.78.127-.417.254-.76.275-.76s.127.256.225.563zM21.64 8.916c.782.329 1.529 1.272 1.648 2.069.063.439.211.717.402.76.084.015.669.066 1.296.11 2.226.146 3.98.621 4.727 1.272.345.307.31.563-.106.877-.831.629-2.627 1.104-4.459 1.184-1.212.051-1.465.088-1.627.256-.12.124-.134.256-.134 1.579 0 1.791-.092 2.822-.317 3.656-.317 1.133-.944 2.34-1.677 3.195l-.303.351-.627-.373a7.77 7.77 0 0 0-2.325-.943c-2.67-.636-5.621-.249-7.608 1.002l-.458.293-.289-.344c-.394-.461-1.014-1.448-1.261-2.003-.542-1.258-.704-2.281-.704-4.533 0-2.186.113-2.025-1.507-2.113-2.071-.11-3.649-.483-4.642-1.111-.733-.468-.613-.885.409-1.375.979-.475 2.325-.76 4.191-.877 1.451-.095 1.486-.117 1.62-.819.197-1.06.979-1.938 1.965-2.215.246-.073 1.627-.088 5.854-.08l5.53.015.401.168zm-3.959 15.135c1.726.424 3.015 1.214 3.571 2.193.134.227.19.461.218.819.028.446.007.556-.162.921-.782 1.66-3.656 2.756-6.579 2.508-3.515-.293-5.826-2.252-4.917-4.175.493-1.038 2.163-2.033 3.924-2.325.289-.044.578-.095.634-.11s.69-.015 1.409 0c.979.022 1.451.066 1.902.168z"/><path d="M10.693 12.579c-.437.146-.733.336-1.127.731-.345.329-.373.717-.085.95.268.219.521.19.845-.095.409-.358.726-.504 1.12-.504.394-.007.697.132 1.12.504.324.285.578.314.845.095.141-.117.183-.212.183-.431 0-.227-.049-.329-.296-.578-.697-.702-1.733-.972-2.606-.673zm8.213-.008c-.451.168-1.029.548-1.261.833-.225.278-.232.592 0 .826.232.249.514.234.852-.044.831-.687 1.451-.709 2.219-.073.197.168.423.3.493.3.345 0 .627-.307.627-.673 0-.234-.585-.775-1.113-1.031-.585-.285-1.282-.336-1.817-.139zm-7.192 13.535c-.204.197-.275.483-.169.709.078.183.197.256.683.388.218.058.31.132.387.314.099.241.106.241.648.263l.542.022v-.205c-.007-.293-.169-.717-.38-1.009-.247-.336-.676-.556-1.162-.6-.331-.029-.416-.015-.549.117zm6.728-.052c-.352.095-.859.57-1 .943a2.54 2.54 0 0 0-.134.665c-.014.314.014.388.183.541.416.366.965.08.965-.504 0-.285.211-.483.585-.556.394-.073.535-.234.542-.607 0-.49-.437-.68-1.141-.483z"/></symbol><symbol id="weight" viewBox="0 0 32 32"><path d="M14.177.547c-3.974.589-7.247 2.796-8.451 5.685-.384.913-.488 1.473-.488 2.573.007.812.037 1.114.162 1.552.259.863.443 1.301.827 1.919l.355.575-.399.489c-3.154 3.924-3.502 9.444-.872 13.793.982 1.632 2.585 3.234 4.152 4.169l.465.273 12.743-.108.303-.165c1.056-.597 2.549-1.926 3.383-3.004a12.61 12.61 0 0 0 2.423-5.621c.118-.74.118-2.932-.007-3.63-.377-2.149-1.182-3.989-2.453-5.621-.244-.309-.436-.568-.436-.589 0-.014.133-.237.288-.489a7.762 7.762 0 0 0 .864-1.962c.199-.719.199-2.516 0-3.234-.709-2.552-2.837-4.679-5.843-5.851C20.351.97 18.91.618 17.98.503c-.864-.101-2.999-.079-3.804.043zm4.499 1.171c3.945.769 6.833 3.184 7.365 6.16.118.668.044 1.804-.155 2.437-.199.618-.569 1.344-1.005 1.962-.177.252-.325.539-.325.633s.155.338.377.582c1.847 2.048 2.822 4.614 2.822 7.389-.007 3.155-1.219 5.922-3.553 8.093-.399.374-.968.841-1.271 1.042l-.554.374-12.211.05-.473-.302c-1.714-1.114-3.258-2.954-4.115-4.909-1.079-2.472-1.189-5.34-.31-7.913.465-1.337 1.086-2.429 2.031-3.579.384-.46.561-.733.561-.863 0-.108-.192-.46-.443-.827-.886-1.287-1.248-2.717-1.034-4.068.222-1.366.842-2.487 1.987-3.601 1.492-1.445 3.575-2.401 6.02-2.76 1.012-.151 3.25-.093 4.285.101z"/><path d="M14.51 2.983c-3.029.496-5.4 2.178-6.176 4.384-.177.496-.207.69-.207 1.402s.03.906.207 1.402c.111.316.318.755.458.978.384.618.554.64 1.315.18a11.972 11.972 0 0 1 3.804-1.488c.916-.187 2.674-.259 3.671-.144 1.559.18 3.25.74 4.602 1.538.384.223.776.41.872.41.561 0 1.278-1.617 1.278-2.875 0-2.796-2.674-5.189-6.464-5.786-.805-.129-2.585-.129-3.361 0zm3.656 1.15c1.271.273 2.438.791 3.317 1.473 1.182.913 1.817 2.185 1.714 3.414-.037.489-.222 1.15-.332 1.222-.029.014-.443-.158-.916-.388a14.721 14.721 0 0 0-3.228-1.1c-.687-.144-.975-.165-2.512-.158-1.514 0-1.832.022-2.489.158a13.254 13.254 0 0 0-3.117 1.064c-1.101.525-1.042.532-1.241-.115-.258-.841-.096-1.955.406-2.796.266-.446.997-1.186 1.529-1.553 1.012-.697 1.899-1.013 3.804-1.358.391-.072 2.563.029 3.066.137zm-1.204 9.272c-.207.259-.207.503.007.712.14.137.281.172.79.208.99.072 1.935.359 2.785.848.606.359 1.529 1.229 1.943 1.854.613.898 1.034 2.185 1.034 3.134 0 .331.029.431.185.575.236.237.547.237.776 0 .163-.165.17-.208.125-.913-.207-3.479-3.184-6.383-6.744-6.577l-.739-.043-.163.201z"/></symbol><symbol id="ice-crema" viewBox="0 0 32 32"><path d="M16.108.107c.08.214.241 1.252.241 1.573 0 .797-.295 1.54-.837 2.122-.449.482-.897.75-1.975 1.185-1.198.489-1.694.783-2.256 1.339-.569.569-.904 1.192-1.024 1.921-.134.797 0 1.359.408 1.68l.208.161-.328.208c-.663.435-1.868 1.459-2.075 1.774-.402.603-.361 1.165.094 1.392l.214.107-.241.228c-.361.341-.435.576-.382 1.192.033.408.02.629-.074.964-.114.435-.114.442.033.75.147.301.562.683.937.843.181.08.187.107.228.723.02.355.053 1.486.08 2.517.02 1.031.067 1.975.107 2.089a.79.79 0 0 0 .274.361c.388.268.656.556.83.89.194.382.408 1.319 1.058 4.559l.455 2.276.281.268c.536.529 1.56.77 3.247.77 1.694 0 2.705-.234 3.24-.763l.288-.274.415-2.109c.917-4.613.997-4.867 1.714-5.436.221-.181.435-.402.475-.502.047-.114.094-.991.127-2.316.027-1.178.067-2.343.094-2.591l.04-.449.435-.328c.549-.422.763-.803.763-1.393-.007-.696-.462-1.459-1.292-2.142l-.395-.321.194-.274c.81-1.118.301-2.664-1.205-3.695l-.455-.315.167-.174c.743-.797.864-3.173.241-4.827-.375-.984-1.232-2.055-2.283-2.845C17.659.857 16.239 0 16.112 0c-.027 0-.027.047-.007.107zm1.928 2.336c.355.348.783.823.951 1.064.997 1.392 1.252 3.14.649 4.425-.241.522-.964 1.299-1.633 1.761-1.024.71-3.327 1.901-4.934 2.557-2.584 1.051-4.084 1.252-4.258.562-.067-.261.127-.469.951-1.018.743-.509 4.077-2.986 4.137-3.086.02-.027-.321.127-.75.341-1.453.736-2.142.596-2.109-.428.02-.743.556-1.587 1.299-2.069.187-.12.77-.388 1.305-.603 1.761-.71 2.296-1.071 2.892-1.962.355-.529.743-1.506.77-1.921.007-.147.034-.261.054-.261s.321.288.676.636zm1.828 7.606c.489.274.997.743 1.218 1.111.388.663.187 1.325-.649 2.169-.91.924-2.464 1.808-4.171 2.37-1.573.515-3.079.756-5.235.83l-1.339.047.87.054c1.125.074 3.3.007 4.144-.127 2.243-.355 4.151-1.064 5.516-2.042.308-.221.629-.402.716-.402.221 0 1.185.924 1.379 1.312.107.221.134.382.114.596-.1.89-1.185 1.366-3.802 1.68-3.2.382-7.384.007-9.172-.817-.844-.388-.984-.609-.77-1.198.067-.187.08-.408.054-.723-.033-.415-.027-.469.12-.623.335-.361.897-.569 2.959-1.091a28.11 28.11 0 0 0 2.176-.656c1.138-.415 3.274-1.493 4.264-2.156.93-.616 1.064-.643 1.607-.335zm-8.89 8.194c1.406.408 2.651.529 4.967.482 1.741-.034 2.812-.141 4.358-.415.315-.053.589-.1.623-.1.074 0 .053 2.571-.027 3.247-.087.716-.281 1.272-.489 1.406-.214.141-1.285.288-2.718.368-2.939.161-5.958 0-6.895-.375-.509-.207-.562-.475-.569-2.959 0-1.654.013-1.881.1-1.848.053.02.348.107.649.194zm1.586 5.69c.482.06 1.004.121 1.165.141l.288.034-.254.281c-.328.355-.83 1.064-1.011 1.426-.207.415-.274.442-.582.274l-.261-.147-.147-.91c-.08-.495-.167-.971-.187-1.051-.06-.174-.12-.174.991-.047zm7.137-.074c0 .013-.033.187-.067.382-.04.201-.208 1.292-.375 2.43-.341 2.377-.569 3.495-.777 3.869-.288.502-.977.797-2.095.89-.435.034-1.747-.053-1.821-.12-.053-.06 1.098-1.486 1.279-1.58.167-.094.214-.08.783.214.663.348.997.402.997.181s-.174-.435-.602-.73c-.395-.281-.536-.442-.536-.629 0-.053.194-.355.428-.669s.576-.817.75-1.118l.328-.542.301.04c.609.087.77.08.75-.053-.013-.067-.127-.261-.254-.422-.127-.167-.228-.335-.228-.368 0-.127.623-1.299.823-1.546.174-.214.315-.321.315-.228zm-4.184.536c.335.221 1.593 1.312 1.674 1.446.034.06-1.259 2.082-1.513 2.37-.027.034-.167-.033-.308-.141a22.133 22.133 0 0 0-1.165-.803l-.904-.596.542-.917c.964-1.613.944-1.587 1.151-1.587.107 0 .341.1.522.228zm2.537.241c-.234.288-.428.469-.509.469-.174 0-.455-.154-.93-.502l-.395-.288.79-.047c.428-.02.844-.047.917-.06.536-.087.536-.08.127.428zm-5.061 3.22c.616.241 1.66.81 1.962 1.064.214.174.214.187.127.402a6.675 6.675 0 0 1-.415.716c-.174.268-.375.602-.449.743-.214.415-.281.449-.723.328-.475-.141-.73-.382-.864-.817-.181-.609-.469-2.33-.435-2.598.013-.1.295-.04.797.161z"/></symbol><symbol id="github" viewBox="0 0 32 32"><path fill="#f8d24e" style="fill:var(--color1,#f8d24e)" d="M32 16c0 8.837-7.163 16-16 16S0 24.837 0 16 7.163 0 16 0s16 7.163 16 16z"/><path fill="#84a178" style="fill:var(--color2,#84a178)" d="M16 6.588c-5.169 0-9.412 4.242-9.412 9.412 0 4.411 3.095 8.419 7.206 9.412v-3.114a2.307 2.307 0 0 1-1.197-.03c-.556-.164-1.008-.535-1.344-1.1-.214-.361-.593-.752-.988-.723l-.097-1.099c.855-.073 1.595.521 2.034 1.259.195.328.419.52.708.605.278.082.578.043.926-.08.088-.698.407-.959.648-1.326v-.001c-2.451-.366-3.428-1.666-3.816-2.693-.514-1.363-.238-3.066.671-4.142.018-.021.05-.076.037-.114-.417-1.258.091-2.299.11-2.41.481.142.559-.143 2.089.786l.264.159c.111.066.076.028.186.02A8.031 8.031 0 0 1 16 11.131a8.016 8.016 0 0 1 2.002.285l.086.009c-.007-.001.023-.005.075-.036 1.911-1.157 1.842-.779 2.355-.946.019.111.519 1.169.107 2.411-.056.171 1.657 1.739.708 4.256-.388 1.027-1.365 2.328-3.816 2.693v.001c.314.479.692.734.69 1.722v3.887c4.111-.993 7.206-5 7.206-9.412 0-5.169-4.242-9.412-9.412-9.412z"/></symbol><symbol id="telegram" viewBox="0 0 32 32"><path fill="#f8d24e" style="fill:var(--color1,#f8d24e)" d="M32 16c0 8.837-7.163 16-16 16S0 24.837 0 16 7.163 0 16 0s16 7.163 16 16z"/><path fill="#84a178" style="fill:var(--color2,#84a178)" d="m12.869 18.375-.318 4.169c.454 0 .651-.182.887-.401l2.13-1.9 4.415 3.017c.81.421 1.38.199 1.598-.695l2.898-12.672.001-.001c.257-1.117-.433-1.554-1.222-1.28L6.226 14.698c-1.162.421-1.145 1.026-.198 1.3l4.354 1.264 10.115-5.907c.476-.294.909-.131.553.163l-8.182 6.857z"/></symbol><symbol id="icon-more" viewBox="0 0 22 32"><path d="M2.864.019A3.202 3.202 0 0 0 .718 1.178l-.005.006A3.181 3.181 0 0 0-.002 3.2c0 1.001.46 1.895 1.18 2.482l.006.005 12.768 10.314L1.187 26.315a3.196 3.196 0 0 0-.469 4.505l-.005-.006a3.196 3.196 0 0 0 4.505.469l-.006.005 15.83-12.8c.726-.591 1.186-1.485 1.186-2.486s-.46-1.895-1.18-2.482l-.006-.005L5.212.715A3.178 3.178 0 0 0 2.849.022l.014-.001z"/></symbol><symbol id="facebook" viewBox="0 0 32 32"><path fill="#f8d24e" style="fill:var(--color1,#f8d24e)" d="M16 32c8.837 0 16-7.163 16-16S24.837 0 16 0 0 7.163 0 16s7.163 16 16 16z"/><path fill="#84a178" style="fill:var(--color2,#84a178)" d="M20.446 15.982h-2.61v9.619h-3.955v-9.619H12v-3.38h1.881v-2.187c0-1.564.739-4.014 3.99-4.014l2.929.012v3.281h-2.125c-.349 0-.839.175-.839.921v1.989h2.955l-.346 3.377z"/></symbol><symbol id="telegram1" viewBox="0 0 44 32"><path d="m17.346 21.048-.675 8.86c.966 0 1.384-.387 1.885-.852l4.527-4.038 9.381 6.412c1.72.895 2.933.424 3.397-1.477l6.158-26.929.002-.002c.546-2.374-.92-3.302-2.596-2.72L3.231 13.235c-2.47.895-2.433 2.18-.42 2.762l9.253 2.686L33.558 6.131c1.011-.625 1.931-.279 1.175.346l-17.386 14.57z"/></symbol><symbol id="facebook1" viewBox="0 0 16 32"><path d="M14.143 15.972h-4.034v14.865H3.997V15.972H1.09v-5.224h2.907V7.367c0-2.418 1.142-6.203 6.166-6.203l4.527.019v5.071h-3.285c-.539 0-1.296.271-1.296 1.424v3.075h4.567l-.534 5.219z"/></symbol><symbol id="github1" viewBox="0 0 32 32"><path d="M16 0C7.212 0 0 7.212 0 16c0 7.499 5.262 14.312 12.25 16v-5.293c-.692.152-1.33.156-2.034-.052-.946-.279-1.714-.909-2.284-1.869-.364-.613-1.008-1.278-1.68-1.23l-.165-1.868c1.453-.124 2.711.886 3.457 2.14.332.558.713.884 1.203 1.029.473.14.982.072 1.574-.137.149-1.186.692-1.63 1.102-2.255-4.167-.622-5.828-2.833-6.488-4.579-.874-2.317-.405-5.212 1.14-7.041.03-.036.084-.129.063-.194-.708-2.139.155-3.909.187-4.097.817.242.95-.243 3.551 1.337l.449.27c.188.112.129.048.317.034A13.544 13.544 0 0 1 16 7.723c1.136.015 2.273.178 3.404.484l.145.015c-.013-.002.04-.009.127-.062 3.248-1.968 3.132-1.324 4.003-1.608.032.188.883 1.987.182 4.099-.095.291 2.816 2.956 1.203 7.235-.659 1.746-2.32 3.957-6.487 4.578.534.814 1.176 1.248 1.173 2.928V32C26.738 30.312 32 23.499 32 16c0-8.788-7.212-16-16-16z"/></symbol><symbol id="icon-more" viewBox="0 0 22 32"><path d="M2.864.019A3.202 3.202 0 0 0 .718 1.178l-.005.006A3.181 3.181 0 0 0-.002 3.2c0 1.001.46 1.895 1.18 2.482l.006.005 12.768 10.314L1.187 26.315a3.196 3.196 0 0 0-.469 4.505l-.005-.006a3.196 3.196 0 0 0 4.505.469l-.006.005 15.83-12.8c.726-.591 1.186-1.485 1.186-2.486s-.46-1.895-1.18-2.482l-.006-.005L5.212.715A3.178 3.178 0 0 0 2.849.022l.014-.001z"/></symbol></defs></svg>